<svg width="368" height="46" viewBox="0 0 368 46" fill="none" xmlns="http://www.w3.org/2000/svg">
<path d="M99.9227 16.0396C100.675 15.2339 101.184 14.1154 101.045 13C99.9608 13.0387 98.6468 13.6364 97.8686 14.442C97.171 15.1552 96.5602 16.295 96.7232 17.3885C97.933 17.4704 99.1689 16.844 99.9227 16.0396ZM102.232 23.7425C102.209 21.2419 104.211 20.0409 104.3 19.9829C103.174 18.2848 101.42 18.0524 100.796 18.0262C99.3026 17.8695 97.8843 18.9305 97.1262 18.9305C96.3711 18.9305 95.2032 18.0468 93.9648 18.0706C92.3367 18.0974 90.8365 19.0455 90.0003 20.548C88.309 23.5708 89.5668 28.0487 91.2149 30.5006C92.0205 31.7009 92.9798 33.0474 94.2395 32.9987C95.4554 32.95 95.9138 32.19 97.3809 32.19C98.8485 32.19 99.2595 32.9987 100.543 32.9743C101.85 32.95 102.677 31.7509 103.476 30.5468C104.4 29.1547 104.781 27.807 104.803 27.7389C104.775 27.7227 102.258 26.7328 102.232 23.7425Z" fill="white"/>
<path d="M122.598 29.252C121.65 29.252 120.81 29.084 120.078 28.748C119.346 28.412 118.77 27.92 118.35 27.272C117.942 26.612 117.738 25.814 117.738 24.878V24.428H119.664V24.878C119.664 25.766 119.928 26.432 120.456 26.876C120.996 27.32 121.71 27.542 122.598 27.542C123.498 27.542 124.176 27.356 124.632 26.984C125.088 26.6 125.316 26.108 125.316 25.508C125.316 25.112 125.208 24.788 124.992 24.536C124.776 24.284 124.47 24.086 124.074 23.942C123.678 23.786 123.204 23.642 122.652 23.51L121.986 23.348C121.182 23.156 120.48 22.922 119.88 22.646C119.292 22.358 118.836 21.98 118.512 21.512C118.188 21.044 118.026 20.444 118.026 19.712C118.026 18.968 118.206 18.332 118.566 17.804C118.938 17.276 119.448 16.868 120.096 16.58C120.744 16.292 121.506 16.148 122.382 16.148C123.258 16.148 124.038 16.298 124.722 16.598C125.418 16.898 125.964 17.342 126.36 17.93C126.756 18.518 126.954 19.256 126.954 20.144V20.792H125.028V20.144C125.028 19.604 124.914 19.166 124.686 18.83C124.47 18.494 124.164 18.248 123.768 18.092C123.372 17.936 122.91 17.858 122.382 17.858C121.614 17.858 121.014 18.02 120.582 18.344C120.162 18.656 119.952 19.094 119.952 19.658C119.952 20.042 120.042 20.36 120.222 20.612C120.414 20.852 120.69 21.05 121.05 21.206C121.41 21.362 121.86 21.5 122.4 21.62L123.066 21.782C123.882 21.962 124.602 22.196 125.226 22.484C125.85 22.76 126.342 23.138 126.702 23.618C127.062 24.098 127.242 24.716 127.242 25.472C127.242 26.228 127.05 26.888 126.666 27.452C126.294 28.016 125.76 28.46 125.064 28.784C124.368 29.096 123.546 29.252 122.598 29.252ZM129.337 29V20.126H131.191V29H129.337ZM130.273 18.92C129.913 18.92 129.607 18.806 129.355 18.578C129.115 18.338 128.995 18.032 128.995 17.66C128.995 17.288 129.115 16.988 129.355 16.76C129.607 16.52 129.913 16.4 130.273 16.4C130.645 16.4 130.951 16.52 131.191 16.76C131.431 16.988 131.551 17.288 131.551 17.66C131.551 18.032 131.431 18.338 131.191 18.578C130.951 18.806 130.645 18.92 130.273 18.92ZM133.51 24.608V24.338C133.51 23.402 133.696 22.604 134.068 21.944C134.452 21.284 134.956 20.774 135.58 20.414C136.204 20.054 136.888 19.874 137.632 19.874C138.496 19.874 139.156 20.036 139.612 20.36C140.08 20.684 140.422 21.032 140.638 21.404H140.926V20.126H142.726V30.818C142.726 31.358 142.564 31.79 142.24 32.114C141.928 32.438 141.496 32.6 140.944 32.6H134.968V30.98H140.368C140.716 30.98 140.89 30.8 140.89 30.44V27.614H140.602C140.47 27.83 140.284 28.052 140.044 28.28C139.804 28.508 139.486 28.694 139.09 28.838C138.706 28.982 138.22 29.054 137.632 29.054C136.888 29.054 136.198 28.88 135.562 28.532C134.938 28.172 134.44 27.662 134.068 27.002C133.696 26.33 133.51 25.532 133.51 24.608ZM138.136 27.434C138.94 27.434 139.6 27.182 140.116 26.678C140.644 26.162 140.908 25.454 140.908 24.554V24.392C140.908 23.468 140.65 22.76 140.134 22.268C139.618 21.764 138.952 21.512 138.136 21.512C137.344 21.512 136.684 21.764 136.156 22.268C135.64 22.76 135.382 23.468 135.382 24.392V24.554C135.382 25.454 135.64 26.162 136.156 26.678C136.684 27.182 137.344 27.434 138.136 27.434ZM145.456 29V20.126H147.274V21.458H147.562C147.73 21.098 148.03 20.762 148.462 20.45C148.894 20.138 149.536 19.982 150.388 19.982C151.06 19.982 151.654 20.132 152.17 20.432C152.698 20.732 153.112 21.158 153.412 21.71C153.712 22.25 153.862 22.904 153.862 23.672V29H152.008V23.816C152.008 23.048 151.816 22.484 151.432 22.124C151.048 21.752 150.52 21.566 149.848 21.566C149.08 21.566 148.462 21.818 147.994 22.322C147.538 22.826 147.31 23.558 147.31 24.518V29H145.456ZM165.78 29.252C164.784 29.252 163.926 29.072 163.206 28.712C162.498 28.352 161.946 27.836 161.55 27.164C161.166 26.48 160.974 25.652 160.974 24.68V16.4H162.936V24.734C162.936 25.622 163.182 26.306 163.674 26.786C164.166 27.266 164.868 27.506 165.78 27.506C166.692 27.506 167.394 27.266 167.886 26.786C168.378 26.306 168.624 25.622 168.624 24.734V16.4H170.568V24.68C170.568 25.652 170.376 26.48 169.992 27.164C169.608 27.836 169.056 28.352 168.336 28.712C167.616 29.072 166.764 29.252 165.78 29.252ZM173.159 32.6V20.126H174.977V21.404H175.265C175.493 21.008 175.835 20.654 176.291 20.342C176.759 20.03 177.425 19.874 178.289 19.874C179.033 19.874 179.711 20.054 180.323 20.414C180.947 20.774 181.445 21.296 181.817 21.98C182.201 22.652 182.393 23.468 182.393 24.428V24.698C182.393 25.658 182.207 26.48 181.835 27.164C181.463 27.836 180.965 28.352 180.341 28.712C179.717 29.072 179.033 29.252 178.289 29.252C177.713 29.252 177.227 29.18 176.831 29.036C176.435 28.892 176.117 28.712 175.877 28.496C175.637 28.268 175.445 28.034 175.301 27.794H175.013V32.6H173.159ZM177.749 27.632C178.565 27.632 179.231 27.374 179.747 26.858C180.263 26.342 180.521 25.604 180.521 24.644V24.482C180.521 23.534 180.257 22.802 179.729 22.286C179.213 21.77 178.553 21.512 177.749 21.512C176.957 21.512 176.297 21.77 175.769 22.286C175.253 22.802 174.995 23.534 174.995 24.482V24.644C174.995 25.604 175.253 26.342 175.769 26.858C176.297 27.374 176.957 27.632 177.749 27.632ZM190.25 29L188.738 20.126H190.592L191.708 27.758H191.996L193.544 20.126H196.55L198.08 27.758H198.368L199.484 20.126H201.338L199.826 29H196.712L195.182 21.386H194.894L193.364 29H190.25ZM203.534 29V20.126H205.388V29H203.534ZM204.47 18.92C204.11 18.92 203.804 18.806 203.552 18.578C203.312 18.338 203.192 18.032 203.192 17.66C203.192 17.288 203.312 16.988 203.552 16.76C203.804 16.52 204.11 16.4 204.47 16.4C204.842 16.4 205.148 16.52 205.388 16.76C205.628 16.988 205.748 17.288 205.748 17.66C205.748 18.032 205.628 18.338 205.388 18.578C205.148 18.806 204.842 18.92 204.47 18.92ZM211.469 29C210.929 29 210.497 28.838 210.173 28.514C209.861 28.19 209.705 27.758 209.705 27.218V21.692H207.257V20.126H209.705V17.192H211.559V20.126H214.205V21.692H211.559V26.894C211.559 27.254 211.727 27.434 212.063 27.434H213.917V29H211.469ZM216.384 29V16.4H218.238V21.386H218.526C218.646 21.158 218.814 20.936 219.03 20.72C219.258 20.504 219.552 20.33 219.912 20.198C220.284 20.054 220.752 19.982 221.316 19.982C221.988 19.982 222.582 20.132 223.098 20.432C223.626 20.732 224.04 21.158 224.34 21.71C224.64 22.25 224.79 22.904 224.79 23.672V29H222.936V23.816C222.936 23.048 222.744 22.484 222.36 22.124C221.976 21.752 221.448 21.566 220.776 21.566C220.008 21.566 219.39 21.818 218.922 22.322C218.466 22.826 218.238 23.558 218.238 24.518V29H216.384ZM230.827 29L234.427 16.4H237.847L241.429 29H239.431L238.603 26.03H233.671L232.843 29H230.827ZM234.157 24.23H238.117L236.281 17.606H235.993L234.157 24.23ZM243.19 32.6V20.126H245.008V21.404H245.296C245.524 21.008 245.866 20.654 246.322 20.342C246.79 20.03 247.456 19.874 248.32 19.874C249.064 19.874 249.742 20.054 250.354 20.414C250.978 20.774 251.476 21.296 251.848 21.98C252.232 22.652 252.424 23.468 252.424 24.428V24.698C252.424 25.658 252.238 26.48 251.866 27.164C251.494 27.836 250.996 28.352 250.372 28.712C249.748 29.072 249.064 29.252 248.32 29.252C247.744 29.252 247.258 29.18 246.862 29.036C246.466 28.892 246.148 28.712 245.908 28.496C245.668 28.268 245.476 28.034 245.332 27.794H245.044V32.6H243.19ZM247.78 27.632C248.596 27.632 249.262 27.374 249.778 26.858C250.294 26.342 250.552 25.604 250.552 24.644V24.482C250.552 23.534 250.288 22.802 249.76 22.286C249.244 21.77 248.584 21.512 247.78 21.512C246.988 21.512 246.328 21.77 245.8 22.286C245.284 22.802 245.026 23.534 245.026 24.482V24.644C245.026 25.604 245.284 26.342 245.8 26.858C246.328 27.374 246.988 27.632 247.78 27.632ZM254.722 32.6V20.126H256.54V21.404H256.828C257.056 21.008 257.398 20.654 257.854 20.342C258.322 20.03 258.988 19.874 259.852 19.874C260.596 19.874 261.274 20.054 261.886 20.414C262.51 20.774 263.008 21.296 263.38 21.98C263.764 22.652 263.956 23.468 263.956 24.428V24.698C263.956 25.658 263.77 26.48 263.398 27.164C263.026 27.836 262.528 28.352 261.904 28.712C261.28 29.072 260.596 29.252 259.852 29.252C259.276 29.252 258.79 29.18 258.394 29.036C257.998 28.892 257.68 28.712 257.44 28.496C257.2 28.268 257.008 28.034 256.864 27.794H256.576V32.6H254.722ZM259.312 27.632C260.128 27.632 260.794 27.374 261.31 26.858C261.826 26.342 262.084 25.604 262.084 24.644V24.482C262.084 23.534 261.82 22.802 261.292 22.286C260.776 21.77 260.116 21.512 259.312 21.512C258.52 21.512 257.86 21.77 257.332 22.286C256.816 22.802 256.558 23.534 256.558 24.482V24.644C256.558 25.604 256.816 26.342 257.332 26.858C257.86 27.374 258.52 27.632 259.312 27.632ZM266.253 29V16.4H268.107V29H266.253ZM274.926 29.252C274.026 29.252 273.24 29.066 272.568 28.694C271.896 28.31 271.368 27.776 270.984 27.092C270.612 26.396 270.426 25.592 270.426 24.68V24.464C270.426 23.54 270.612 22.736 270.984 22.052C271.356 21.356 271.872 20.822 272.532 20.45C273.204 20.066 273.978 19.874 274.854 19.874C275.706 19.874 276.45 20.066 277.086 20.45C277.734 20.822 278.238 21.344 278.598 22.016C278.958 22.688 279.138 23.474 279.138 24.374V25.076H272.316C272.34 25.856 272.598 26.48 273.09 26.948C273.594 27.404 274.218 27.632 274.962 27.632C275.658 27.632 276.18 27.476 276.528 27.164C276.888 26.852 277.164 26.492 277.356 26.084L278.886 26.876C278.718 27.212 278.472 27.566 278.148 27.938C277.836 28.31 277.422 28.622 276.906 28.874C276.39 29.126 275.73 29.252 274.926 29.252ZM272.334 23.654H277.248C277.2 22.982 276.96 22.46 276.528 22.088C276.096 21.704 275.532 21.512 274.836 21.512C274.14 21.512 273.57 21.704 273.126 22.088C272.694 22.46 272.43 22.982 272.334 23.654Z" fill="white"/>
</svg>
