<svg width="14" height="14" viewBox="0 0 14 14" fill="none" xmlns="http://www.w3.org/2000/svg">
<g clip-path="url(#clip0_152_13764)">
<path d="M13.7555 4.30061L12.5978 3.14293L13.4681 2.27299C13.545 2.19612 13.5883 2.09197 13.5883 1.98303C13.5883 1.8741 13.545 1.76994 13.4681 1.69305L12.303 0.527879C12.1491 0.37407 11.8768 0.37407 11.723 0.527879L10.853 1.39815L9.69518 0.240249C9.37485 -0.0800832 8.85545 -0.0800832 8.53509 0.240249C8.2147 0.560582 8.2147 1.07998 8.53509 1.40034L12.5954 5.4607C12.9158 5.78103 13.4352 5.78103 13.7555 5.4607C14.0758 5.14037 14.0758 4.62097 13.7555 4.30061Z" fill="#001018"/>
<path d="M5.46495 12.5997L1.40464 8.53932C1.08425 8.21899 0.564909 8.21899 0.244522 8.53932C-0.0758107 8.85971 -0.0758107 9.3791 0.244522 9.69944L1.4024 10.8573L0.533819 11.7255C0.456901 11.8024 0.413643 11.9066 0.413643 12.0155C0.413643 12.1244 0.456901 12.2286 0.533819 12.3055L1.69899 13.4703C1.77908 13.5504 1.88403 13.5905 1.98897 13.5905C2.09392 13.5905 2.19887 13.5504 2.27896 13.4703L3.14718 12.6021L4.30486 13.7598C4.62519 14.0801 5.14459 14.0801 5.46495 13.7598C5.78533 13.4394 5.78533 12.92 5.46495 12.5997Z" fill="#001018"/>
<path d="M7.37498 4.88062L4.88489 7.37918L6.62505 9.11934L9.11514 6.62072L7.37498 4.88062Z" fill="#001018"/>
<path d="M12.5954 6.62074L7.37499 1.40028C7.05466 1.07995 6.53523 1.07995 6.2149 1.40028C5.89451 1.72067 5.89451 2.24001 6.2149 2.5604L11.4354 7.78085C11.7557 8.10118 12.2751 8.10118 12.5954 7.78085C12.9158 7.46052 12.9158 6.94112 12.5954 6.62074Z" fill="#001018"/>
<path d="M7.78517 11.4396L2.56469 6.21913C2.24436 5.8988 1.72496 5.8988 1.40463 6.21913C1.08424 6.53952 1.08424 7.05891 1.40463 7.37925L6.62508 12.5997C6.94541 12.92 7.46481 12.92 7.78517 12.5997C8.10555 12.2794 8.10555 11.76 7.78517 11.4396Z" fill="#001018"/>
</g>
<defs>
<clipPath id="clip0_152_13764">
<rect width="14" height="14" fill="white"/>
</clipPath>
</defs>
</svg>
