<svg width="24" height="20" viewBox="0 0 24 20" fill="none" xmlns="http://www.w3.org/2000/svg">
<path d="M17.8333 2H6.16667C3.86917 2 2 3.63127 2 5.63636V14.3636C2 16.3687 3.86917 18 6.16667 18H17.8333C20.1308 18 22 16.3687 22 14.3636V5.63636C22 3.63127 20.1308 2 17.8333 2ZM20.3333 6.36364H17.0883L19.6433 4.13382C20.07 4.52509 20.3333 5.05455 20.3333 5.63636V6.36364ZM18.055 3.46327L14.7442 6.35273C14.7442 6.35273 14.7367 6.36 14.7325 6.36364H11.88L15.2133 3.45455H17.8333C17.9083 3.45455 17.9817 3.45818 18.055 3.46327ZM12.8567 3.45455L9.72 6.192C9.66083 6.24364 9.61167 6.30182 9.57417 6.36364H6.67167L10.005 3.45455H12.8567ZM6.16667 3.45455H7.64833L4.315 6.36364H3.66667V5.63636C3.66667 4.43345 4.78833 3.45455 6.16667 3.45455ZM17.8333 16.5455H6.16667C4.78833 16.5455 3.66667 15.5665 3.66667 14.3636V7.81818H20.3333V14.3636C20.3333 15.5665 19.2117 16.5455 17.8333 16.5455ZM14.5392 12.7636L10.6775 14.5673C10.1592 14.8385 9.5 14.5127 9.5 13.9855V10.3775C9.5 9.85018 10.1592 9.52436 10.6775 9.79564L14.5392 11.5993C15.0425 11.8625 15.0425 12.4996 14.5392 12.7629V12.7636Z" fill="#FF6600"/>
</svg>
