<svg width="28" height="16" viewBox="0 0 28 16" fill="none" xmlns="http://www.w3.org/2000/svg">
<path d="M27.8149 7.55132L21.4515 1.18778C21.2229 0.920852 20.8211 0.889736 20.5542 1.11838C20.2873 1.34697 20.2562 1.7487 20.4848 2.01562C20.5061 2.0405 20.5293 2.06375 20.5542 2.08502L25.8295 7.36675H0.636333C0.284917 7.36675 0 7.65167 0 8.00314C0 8.35461 0.284917 8.63947 0.636333 8.63947H25.8295L20.5542 13.9148C20.2873 14.1434 20.2562 14.5451 20.4848 14.8121C20.7135 15.079 21.1151 15.1101 21.3821 14.8815C21.4069 14.8601 21.4302 14.8369 21.4515 14.8121L27.815 8.44851C28.0617 8.2004 28.0617 7.79954 27.8149 7.55132Z" fill="white"/>
</svg>
