<svg width="60" height="60" viewBox="0 0 60 60" fill="none" xmlns="http://www.w3.org/2000/svg">
<path d="M40.3327 0C29.4882 0 20.6654 8.82272 20.6654 19.6672C20.6654 24.774 22.6224 29.4319 25.8251 32.9318L22.1948 36.5622L22.152 36.5194C21.6312 35.9986 20.9386 35.7116 20.202 35.7116C19.4653 35.7116 18.7728 35.9985 18.2519 36.5194L1.08109 53.6903C-0.360362 55.1319 -0.360362 57.4773 1.08109 58.9189C1.80181 59.6396 2.7486 60.0001 3.69538 60.0001C4.64217 60.0001 5.58895 59.6398 6.30968 58.9189L23.4805 41.7481C24.0014 41.2272 24.2883 40.5347 24.2883 39.798C24.2883 39.0614 24.0014 38.3689 23.4805 37.848L23.4377 37.8052L27.0681 34.1749C30.568 37.3776 35.226 39.3345 40.3327 39.3345C51.1773 39.3345 60 30.5118 60 19.6672C60 8.82272 51.1773 0 40.3327 0ZM5.06675 57.6759C4.31063 58.432 3.08025 58.432 2.32413 57.6759C1.56801 56.9198 1.56801 55.6894 2.32413 54.9332L16.7472 40.5102L19.4898 43.2528L5.06675 57.6759ZM22.2376 40.5051L20.7327 42.0099L17.9901 39.2673L19.4949 37.7624C19.6837 37.5736 19.9349 37.4696 20.202 37.4696C20.469 37.4696 20.7202 37.5736 20.909 37.7624L22.2374 39.091C22.4264 39.2799 22.5303 39.531 22.5303 39.798C22.5304 40.0651 22.4265 40.3161 22.2376 40.5051ZM40.3327 37.5768C30.4573 37.5768 22.4233 29.5427 22.4233 19.6673C22.4233 9.79201 30.4575 1.75786 40.3327 1.75786C50.2079 1.75786 58.2421 9.79201 58.2421 19.6672C58.2421 29.5425 50.208 37.5768 40.3327 37.5768Z" fill="#B3BAC3"/>
<path d="M51.5826 8.4174C45.9256 2.76047 36.8985 2.19784 30.5852 7.10837C30.202 7.40639 30.133 7.95859 30.4311 8.34169C30.729 8.72491 31.2812 8.79393 31.6644 8.4958C37.2798 4.12821 45.3083 4.62896 50.3396 9.66032C55.371 14.6918 55.8716 22.7203 51.5042 28.3354C51.2062 28.7186 51.2752 29.2708 51.6583 29.5688C51.8187 29.6935 52.0087 29.754 52.1972 29.754C52.4592 29.754 52.7184 29.6374 52.8916 29.4146C57.8022 23.1013 57.2396 14.0744 51.5826 8.4174Z" fill="#B3BAC3"/>
<path d="M49.0011 30.8384C46.4416 32.8293 43.3813 33.8086 40.3314 33.8085C36.6902 33.8084 33.0639 32.4121 30.326 29.674C25.2946 24.6427 24.794 16.614 29.1615 10.9989C29.4595 10.6157 29.3905 10.0635 29.0074 9.76551C28.624 9.46749 28.0719 9.53652 27.774 9.91962C22.8633 16.2332 23.426 25.26 29.0831 30.917C32.1618 33.9958 36.2379 35.5656 40.3325 35.5654C43.7611 35.5653 47.203 34.4641 50.0804 32.226C50.4636 31.928 50.5325 31.3758 50.2345 30.9925C49.9364 30.6096 49.384 30.5404 49.0011 30.8384Z" fill="#B3BAC3"/>
<path d="M33.1354 19.3493C33.3069 19.521 33.5319 19.6068 33.7568 19.6068C33.9817 19.6068 34.2067 19.521 34.3783 19.3493L35.6356 18.0919L36.893 19.3493C37.0645 19.521 37.2896 19.6068 37.5144 19.6068C37.7393 19.6068 37.9643 19.521 38.1359 19.3493C38.4792 19.006 38.4792 18.4496 38.1359 18.1064L36.8786 16.849L38.1359 15.5917C38.4792 15.2484 38.4792 14.692 38.1359 14.3487C37.7927 14.0055 37.2361 14.0055 36.893 14.3487L35.6356 15.6061L34.3783 14.3487C34.035 14.0055 33.4785 14.0055 33.1354 14.3487C32.7921 14.692 32.7921 15.2485 33.1354 15.5917L34.3927 16.849L33.1354 18.1064C32.7921 18.4496 32.7921 19.0061 33.1354 19.3493Z" fill="#B3BAC3"/>
<path d="M42.5295 19.3493C42.7011 19.521 42.9261 19.6068 43.151 19.6068C43.3759 19.6068 43.6009 19.521 43.7724 19.3493L45.0298 18.0919L46.2871 19.3493C46.4587 19.521 46.6837 19.6068 46.9086 19.6068C47.1335 19.6068 47.3585 19.521 47.53 19.3493C47.8733 19.006 47.8733 18.4495 47.53 18.1064L46.2727 16.849L47.53 15.5917C47.8733 15.2484 47.8733 14.692 47.53 14.3487C47.1868 14.0055 46.6302 14.0055 46.2871 14.3487L45.0298 15.6061L43.7724 14.3487C43.4292 14.0055 42.8726 14.0055 42.5295 14.3487C42.1862 14.692 42.1862 15.2485 42.5295 15.5917L43.7868 16.849L42.5295 18.1064C42.1861 18.4496 42.1861 19.0061 42.5295 19.3493Z" fill="#B3BAC3"/>
<path d="M35.0137 25.6222C34.6708 25.9658 34.6713 26.5224 35.0148 26.8653C35.1863 27.0365 35.411 27.1221 35.6358 27.1221C35.8609 27.1221 36.0861 27.0361 36.2578 26.8642C37.286 25.8341 38.7713 25.2433 40.3328 25.2433C41.8942 25.2433 43.3796 25.8341 44.4078 26.8642C44.7507 27.2078 45.3073 27.2083 45.6508 26.8653C45.9943 26.5224 45.9948 25.9658 45.6518 25.6223C44.2963 24.2643 42.3575 23.4856 40.3327 23.4856C38.3081 23.4854 36.3693 24.2642 35.0137 25.6222Z" fill="#B3BAC3"/>
</svg>
