<svg width="28" height="36" viewBox="0 0 28 36" fill="none" xmlns="http://www.w3.org/2000/svg">
<path d="M14 17.6428C18.758 17.6428 22.6154 13.8053 22.6154 9.07143C22.6154 4.33756 18.758 0.5 14 0.5C9.24183 0.5 5.38458 4.33756 5.38458 9.07143C5.38458 13.8053 9.24183 17.6428 14 17.6428Z" fill="white"/>
<path d="M18.4872 21.2144H9.51282C4.30769 21.2144 0 25.5003 0 30.6787C0 31.9287 0.538457 33.0003 1.61539 33.5359C3.23076 34.4288 6.82052 35.5 14 35.5C21.1796 35.5 24.7692 34.4288 26.3846 33.5359C27.282 33.0003 28 31.9287 28 30.6787C28 25.3216 23.6924 21.2144 18.4872 21.2144Z" fill="white"/>
</svg>
