<svg width="368" height="46" viewBox="0 0 368 46" fill="none" xmlns="http://www.w3.org/2000/svg">
<path d="M86.4892 24.8777L85.8626 27.2167L83.5726 27.2651C82.8882 25.9957 82.5 24.5434 82.5 23C82.5 21.5076 82.863 20.1002 83.5063 18.861H83.5068L85.5456 19.2348L86.4387 21.2613C86.2518 21.8063 86.1499 22.3913 86.1499 23C86.15 23.6607 86.2696 24.2937 86.4892 24.8777Z" fill="#FBBB00"/>
<path d="M100.343 21.3187C100.446 21.8632 100.5 22.4254 100.5 23C100.5 23.6444 100.432 24.2729 100.303 24.8792C99.8651 26.9422 98.7203 28.7437 97.1344 30.0186L97.1339 30.0181L94.566 29.887L94.2025 27.6182C95.2548 27.0011 96.0772 26.0353 96.5104 24.8792H91.6979V21.3187H96.5806H100.343Z" fill="#518EF8"/>
<path d="M97.1339 30.0181L97.1344 30.0185C95.5921 31.2583 93.6328 32 91.5 32C88.0726 32 85.0927 30.0843 83.5726 27.2651L86.4892 24.8777C87.2492 26.9061 89.206 28.3501 91.5 28.3501C92.486 28.3501 93.4098 28.0835 94.2025 27.6182L97.1339 30.0181Z" fill="#28B446"/>
<path d="M97.2447 16.072L94.3291 18.4589C93.5087 17.9461 92.5389 17.6499 91.5 17.6499C89.1541 17.6499 87.1607 19.1601 86.4387 21.2613L83.5068 18.861H83.5063C85.0042 15.9731 88.0216 14 91.5 14C93.6837 14 95.686 14.7779 97.2447 16.072Z" fill="#F14336"/>
<path d="M116.098 29.252C115.15 29.252 114.31 29.084 113.578 28.748C112.846 28.412 112.27 27.92 111.85 27.272C111.442 26.612 111.238 25.814 111.238 24.878V24.428H113.164V24.878C113.164 25.766 113.428 26.432 113.956 26.876C114.496 27.32 115.21 27.542 116.098 27.542C116.998 27.542 117.676 27.356 118.132 26.984C118.588 26.6 118.816 26.108 118.816 25.508C118.816 25.112 118.708 24.788 118.492 24.536C118.276 24.284 117.97 24.086 117.574 23.942C117.178 23.786 116.704 23.642 116.152 23.51L115.486 23.348C114.682 23.156 113.98 22.922 113.38 22.646C112.792 22.358 112.336 21.98 112.012 21.512C111.688 21.044 111.526 20.444 111.526 19.712C111.526 18.968 111.706 18.332 112.066 17.804C112.438 17.276 112.948 16.868 113.596 16.58C114.244 16.292 115.006 16.148 115.882 16.148C116.758 16.148 117.538 16.298 118.222 16.598C118.918 16.898 119.464 17.342 119.86 17.93C120.256 18.518 120.454 19.256 120.454 20.144V20.792H118.528V20.144C118.528 19.604 118.414 19.166 118.186 18.83C117.97 18.494 117.664 18.248 117.268 18.092C116.872 17.936 116.41 17.858 115.882 17.858C115.114 17.858 114.514 18.02 114.082 18.344C113.662 18.656 113.452 19.094 113.452 19.658C113.452 20.042 113.542 20.36 113.722 20.612C113.914 20.852 114.19 21.05 114.55 21.206C114.91 21.362 115.36 21.5 115.9 21.62L116.566 21.782C117.382 21.962 118.102 22.196 118.726 22.484C119.35 22.76 119.842 23.138 120.202 23.618C120.562 24.098 120.742 24.716 120.742 25.472C120.742 26.228 120.55 26.888 120.166 27.452C119.794 28.016 119.26 28.46 118.564 28.784C117.868 29.096 117.046 29.252 116.098 29.252ZM122.837 29V20.126H124.691V29H122.837ZM123.773 18.92C123.413 18.92 123.107 18.806 122.855 18.578C122.615 18.338 122.495 18.032 122.495 17.66C122.495 17.288 122.615 16.988 122.855 16.76C123.107 16.52 123.413 16.4 123.773 16.4C124.145 16.4 124.451 16.52 124.691 16.76C124.931 16.988 125.051 17.288 125.051 17.66C125.051 18.032 124.931 18.338 124.691 18.578C124.451 18.806 124.145 18.92 123.773 18.92ZM127.01 24.608V24.338C127.01 23.402 127.196 22.604 127.568 21.944C127.952 21.284 128.456 20.774 129.08 20.414C129.704 20.054 130.388 19.874 131.132 19.874C131.996 19.874 132.656 20.036 133.112 20.36C133.58 20.684 133.922 21.032 134.138 21.404H134.426V20.126H136.226V30.818C136.226 31.358 136.064 31.79 135.74 32.114C135.428 32.438 134.996 32.6 134.444 32.6H128.468V30.98H133.868C134.216 30.98 134.39 30.8 134.39 30.44V27.614H134.102C133.97 27.83 133.784 28.052 133.544 28.28C133.304 28.508 132.986 28.694 132.59 28.838C132.206 28.982 131.72 29.054 131.132 29.054C130.388 29.054 129.698 28.88 129.062 28.532C128.438 28.172 127.94 27.662 127.568 27.002C127.196 26.33 127.01 25.532 127.01 24.608ZM131.636 27.434C132.44 27.434 133.1 27.182 133.616 26.678C134.144 26.162 134.408 25.454 134.408 24.554V24.392C134.408 23.468 134.15 22.76 133.634 22.268C133.118 21.764 132.452 21.512 131.636 21.512C130.844 21.512 130.184 21.764 129.656 22.268C129.14 22.76 128.882 23.468 128.882 24.392V24.554C128.882 25.454 129.14 26.162 129.656 26.678C130.184 27.182 130.844 27.434 131.636 27.434ZM138.956 29V20.126H140.774V21.458H141.062C141.23 21.098 141.53 20.762 141.962 20.45C142.394 20.138 143.036 19.982 143.888 19.982C144.56 19.982 145.154 20.132 145.67 20.432C146.198 20.732 146.612 21.158 146.912 21.71C147.212 22.25 147.362 22.904 147.362 23.672V29H145.508V23.816C145.508 23.048 145.316 22.484 144.932 22.124C144.548 21.752 144.02 21.566 143.348 21.566C142.58 21.566 141.962 21.818 141.494 22.322C141.038 22.826 140.81 23.558 140.81 24.518V29H138.956ZM159.28 29.252C158.284 29.252 157.426 29.072 156.706 28.712C155.998 28.352 155.446 27.836 155.05 27.164C154.666 26.48 154.474 25.652 154.474 24.68V16.4H156.436V24.734C156.436 25.622 156.682 26.306 157.174 26.786C157.666 27.266 158.368 27.506 159.28 27.506C160.192 27.506 160.894 27.266 161.386 26.786C161.878 26.306 162.124 25.622 162.124 24.734V16.4H164.068V24.68C164.068 25.652 163.876 26.48 163.492 27.164C163.108 27.836 162.556 28.352 161.836 28.712C161.116 29.072 160.264 29.252 159.28 29.252ZM166.659 32.6V20.126H168.477V21.404H168.765C168.993 21.008 169.335 20.654 169.791 20.342C170.259 20.03 170.925 19.874 171.789 19.874C172.533 19.874 173.211 20.054 173.823 20.414C174.447 20.774 174.945 21.296 175.317 21.98C175.701 22.652 175.893 23.468 175.893 24.428V24.698C175.893 25.658 175.707 26.48 175.335 27.164C174.963 27.836 174.465 28.352 173.841 28.712C173.217 29.072 172.533 29.252 171.789 29.252C171.213 29.252 170.727 29.18 170.331 29.036C169.935 28.892 169.617 28.712 169.377 28.496C169.137 28.268 168.945 28.034 168.801 27.794H168.513V32.6H166.659ZM171.249 27.632C172.065 27.632 172.731 27.374 173.247 26.858C173.763 26.342 174.021 25.604 174.021 24.644V24.482C174.021 23.534 173.757 22.802 173.229 22.286C172.713 21.77 172.053 21.512 171.249 21.512C170.457 21.512 169.797 21.77 169.269 22.286C168.753 22.802 168.495 23.534 168.495 24.482V24.644C168.495 25.604 168.753 26.342 169.269 26.858C169.797 27.374 170.457 27.632 171.249 27.632ZM183.75 29L182.238 20.126H184.092L185.208 27.758H185.496L187.044 20.126H190.05L191.58 27.758H191.868L192.984 20.126H194.838L193.326 29H190.212L188.682 21.386H188.394L186.864 29H183.75ZM197.034 29V20.126H198.888V29H197.034ZM197.97 18.92C197.61 18.92 197.304 18.806 197.052 18.578C196.812 18.338 196.692 18.032 196.692 17.66C196.692 17.288 196.812 16.988 197.052 16.76C197.304 16.52 197.61 16.4 197.97 16.4C198.342 16.4 198.648 16.52 198.888 16.76C199.128 16.988 199.248 17.288 199.248 17.66C199.248 18.032 199.128 18.338 198.888 18.578C198.648 18.806 198.342 18.92 197.97 18.92ZM204.969 29C204.429 29 203.997 28.838 203.673 28.514C203.361 28.19 203.205 27.758 203.205 27.218V21.692H200.757V20.126H203.205V17.192H205.059V20.126H207.705V21.692H205.059V26.894C205.059 27.254 205.227 27.434 205.563 27.434H207.417V29H204.969ZM209.884 29V16.4H211.738V21.386H212.026C212.146 21.158 212.314 20.936 212.53 20.72C212.758 20.504 213.052 20.33 213.412 20.198C213.784 20.054 214.252 19.982 214.816 19.982C215.488 19.982 216.082 20.132 216.598 20.432C217.126 20.732 217.54 21.158 217.84 21.71C218.14 22.25 218.29 22.904 218.29 23.672V29H216.436V23.816C216.436 23.048 216.244 22.484 215.86 22.124C215.476 21.752 214.948 21.566 214.276 21.566C213.508 21.566 212.89 21.818 212.422 22.322C211.966 22.826 211.738 23.558 211.738 24.518V29H209.884ZM229.866 29.252C228.966 29.252 228.162 29.06 227.454 28.676C226.746 28.28 226.188 27.704 225.78 26.948C225.372 26.192 225.168 25.268 225.168 24.176V21.224C225.168 19.58 225.618 18.326 226.518 17.462C227.418 16.586 228.636 16.148 230.172 16.148C231.684 16.148 232.848 16.562 233.664 17.39C234.48 18.206 234.888 19.304 234.888 20.684V20.774H232.962V20.63C232.962 20.114 232.86 19.652 232.656 19.244C232.452 18.824 232.146 18.494 231.738 18.254C231.33 18.014 230.808 17.894 230.172 17.894C229.212 17.894 228.462 18.188 227.922 18.776C227.382 19.352 227.112 20.156 227.112 21.188V24.212C227.112 25.232 227.382 26.042 227.922 26.642C228.462 27.23 229.218 27.524 230.19 27.524C231.15 27.524 231.852 27.26 232.296 26.732C232.74 26.204 232.962 25.52 232.962 24.68V24.446H229.578V22.772H234.888V29H233.088V27.722H232.8C232.692 27.95 232.53 28.184 232.314 28.424C232.11 28.664 231.81 28.862 231.414 29.018C231.03 29.174 230.514 29.252 229.866 29.252ZM241.604 29.252C240.716 29.252 239.924 29.072 239.228 28.712C238.544 28.34 238.004 27.812 237.608 27.128C237.212 26.444 237.014 25.634 237.014 24.698V24.428C237.014 23.492 237.212 22.688 237.608 22.016C238.004 21.332 238.544 20.804 239.228 20.432C239.924 20.06 240.716 19.874 241.604 19.874C242.492 19.874 243.284 20.06 243.98 20.432C244.676 20.804 245.222 21.332 245.618 22.016C246.014 22.688 246.212 23.492 246.212 24.428V24.698C246.212 25.634 246.014 26.444 245.618 27.128C245.222 27.812 244.676 28.34 243.98 28.712C243.284 29.072 242.492 29.252 241.604 29.252ZM241.604 27.596C242.42 27.596 243.08 27.338 243.584 26.822C244.1 26.294 244.358 25.568 244.358 24.644V24.482C244.358 23.558 244.106 22.838 243.602 22.322C243.098 21.794 242.432 21.53 241.604 21.53C240.8 21.53 240.14 21.794 239.624 22.322C239.12 22.838 238.868 23.558 238.868 24.482V24.644C238.868 25.568 239.12 26.294 239.624 26.822C240.14 27.338 240.8 27.596 241.604 27.596ZM252.678 29.252C251.79 29.252 250.998 29.072 250.302 28.712C249.618 28.34 249.078 27.812 248.682 27.128C248.286 26.444 248.088 25.634 248.088 24.698V24.428C248.088 23.492 248.286 22.688 248.682 22.016C249.078 21.332 249.618 20.804 250.302 20.432C250.998 20.06 251.79 19.874 252.678 19.874C253.566 19.874 254.358 20.06 255.054 20.432C255.75 20.804 256.296 21.332 256.692 22.016C257.088 22.688 257.286 23.492 257.286 24.428V24.698C257.286 25.634 257.088 26.444 256.692 27.128C256.296 27.812 255.75 28.34 255.054 28.712C254.358 29.072 253.566 29.252 252.678 29.252ZM252.678 27.596C253.494 27.596 254.154 27.338 254.658 26.822C255.174 26.294 255.432 25.568 255.432 24.644V24.482C255.432 23.558 255.18 22.838 254.676 22.322C254.172 21.794 253.506 21.53 252.678 21.53C251.874 21.53 251.214 21.794 250.698 22.322C250.194 22.838 249.942 23.558 249.942 24.482V24.644C249.942 25.568 250.194 26.294 250.698 26.822C251.214 27.338 251.874 27.596 252.678 27.596ZM259.163 24.608V24.338C259.163 23.402 259.349 22.604 259.721 21.944C260.105 21.284 260.609 20.774 261.233 20.414C261.857 20.054 262.541 19.874 263.285 19.874C264.149 19.874 264.809 20.036 265.265 20.36C265.733 20.684 266.075 21.032 266.291 21.404H266.579V20.126H268.379V30.818C268.379 31.358 268.217 31.79 267.893 32.114C267.581 32.438 267.149 32.6 266.597 32.6H260.621V30.98H266.021C266.369 30.98 266.543 30.8 266.543 30.44V27.614H266.255C266.123 27.83 265.937 28.052 265.697 28.28C265.457 28.508 265.139 28.694 264.743 28.838C264.359 28.982 263.873 29.054 263.285 29.054C262.541 29.054 261.851 28.88 261.215 28.532C260.591 28.172 260.093 27.662 259.721 27.002C259.349 26.33 259.163 25.532 259.163 24.608ZM263.789 27.434C264.593 27.434 265.253 27.182 265.769 26.678C266.297 26.162 266.561 25.454 266.561 24.554V24.392C266.561 23.468 266.303 22.76 265.787 22.268C265.271 21.764 264.605 21.512 263.789 21.512C262.997 21.512 262.337 21.764 261.809 22.268C261.293 22.76 261.035 23.468 261.035 24.392V24.554C261.035 25.454 261.293 26.162 261.809 26.678C262.337 27.182 262.997 27.434 263.789 27.434ZM271.108 29V16.4H272.962V29H271.108ZM279.782 29.252C278.882 29.252 278.096 29.066 277.424 28.694C276.752 28.31 276.224 27.776 275.84 27.092C275.468 26.396 275.282 25.592 275.282 24.68V24.464C275.282 23.54 275.468 22.736 275.84 22.052C276.212 21.356 276.728 20.822 277.388 20.45C278.06 20.066 278.834 19.874 279.71 19.874C280.562 19.874 281.306 20.066 281.942 20.45C282.59 20.822 283.094 21.344 283.454 22.016C283.814 22.688 283.994 23.474 283.994 24.374V25.076H277.172C277.196 25.856 277.454 26.48 277.946 26.948C278.45 27.404 279.074 27.632 279.818 27.632C280.514 27.632 281.036 27.476 281.384 27.164C281.744 26.852 282.02 26.492 282.212 26.084L283.742 26.876C283.574 27.212 283.328 27.566 283.004 27.938C282.692 28.31 282.278 28.622 281.762 28.874C281.246 29.126 280.586 29.252 279.782 29.252ZM277.19 23.654H282.104C282.056 22.982 281.816 22.46 281.384 22.088C280.952 21.704 280.388 21.512 279.692 21.512C278.996 21.512 278.426 21.704 277.982 22.088C277.55 22.46 277.286 22.982 277.19 23.654Z" fill="white"/>
</svg>
