<svg width="20" height="20" viewBox="0 0 20 20" fill="none" xmlns="http://www.w3.org/2000/svg">
<g clip-path="url(#clip0_163_3609)">
<path d="M15.8333 20.0001H13.4492C12.9108 20.0001 12.4042 19.7393 12.0917 19.3009C11.7792 18.8634 11.6983 18.2976 11.8733 17.7901L13.3242 13.5851C13.3508 13.5084 13.325 13.4493 13.2992 13.4134C13.2733 13.3768 13.2258 13.3334 13.145 13.3334H10.7533C10.4892 13.3334 10.2408 13.2084 10.0833 12.9968C9.92667 12.7843 9.87917 12.5101 9.95583 12.2576L11.0975 8.51009C11.1108 8.46592 11.1033 8.42509 11.0767 8.38842C11.0217 8.31426 10.9033 8.31842 10.8525 8.39426L6.72083 14.5368C6.64083 14.6584 6.68333 14.7793 6.71583 14.8393C6.74833 14.8993 6.82667 14.9993 6.985 14.9993H9.28083C9.55583 14.9993 9.8125 15.1343 9.9675 15.3609C10.1225 15.5876 10.1575 15.8751 10.0583 16.1318L8.98333 18.9301C8.73833 19.5701 8.1125 19.9993 7.4275 19.9993H4.16667C1.86917 19.9993 0 18.1301 0 15.8326V8.10342C0 6.71676 0.686667 5.42509 1.83583 4.64842L7.67 0.712588C9.085 -0.242412 10.915 -0.242412 12.3308 0.712588L18.1642 4.64842C19.3133 5.42509 20 6.71592 20 8.10342V15.8334C20 18.1309 18.1308 20.0001 15.8333 20.0001ZM11.8783 11.6668H13.145C13.7442 11.6668 14.3092 11.9584 14.6567 12.4459C15.0042 12.9343 15.095 13.5634 14.9 14.1293L13.4492 18.3343H15.8342C17.2125 18.3343 18.3342 17.2126 18.3342 15.8343V8.10342C18.3342 7.27176 17.9225 6.49592 17.2325 6.03092L11.3983 2.09509C10.5483 1.52092 9.45167 1.52092 8.60167 2.09509L2.76833 6.03009C2.07833 6.49592 1.66667 7.27009 1.66667 8.10259V15.8326C1.66667 17.2109 2.78833 18.3326 4.16667 18.3326H7.4275L8.0675 16.6659H6.985C6.26 16.6659 5.59583 16.2701 5.25 15.6334C4.90417 14.9968 4.93583 14.2243 5.33083 13.6159L9.465 7.47092C9.79417 6.96926 10.3575 6.66592 10.9667 6.66592C11.5442 6.66592 12.0725 6.93176 12.4158 7.39592C12.76 7.85926 12.86 8.44176 12.6925 8.99426L11.8792 11.6659L11.8783 11.6668Z" fill="#FF6600"/>
</g>
<defs>
<clipPath id="clip0_163_3609">
<rect width="20" height="20" fill="white"/>
</clipPath>
</defs>
</svg>
