<svg width="10" height="10" viewBox="0 0 10 10" fill="none" xmlns="http://www.w3.org/2000/svg">
<path d="M5 0.0174561C3.89748 0.018669 2.84045 0.457154 2.06081 1.23672C1.28117 2.01628 0.842575 3.07327 0.841251 4.17579C0.841251 5.24662 1.67042 6.92246 3.30583 9.15662C3.50053 9.42334 3.75544 9.64033 4.04984 9.78992C4.34423 9.93951 4.66978 10.0175 5 10.0175C5.33022 10.0175 5.65577 9.93951 5.95017 9.78992C6.24456 9.64033 6.49948 9.42334 6.69417 9.15662C8.32959 6.92246 9.15875 5.24662 9.15875 4.17579C9.15743 3.07327 8.71884 2.01628 7.9392 1.23672C7.15955 0.457154 6.10253 0.018669 5 0.0174561ZM5 5.83329C4.67037 5.83329 4.34813 5.73554 4.07405 5.55241C3.79997 5.36927 3.58635 5.10897 3.4602 4.80443C3.33406 4.49989 3.30105 4.16477 3.36536 3.84147C3.42967 3.51817 3.5884 3.2212 3.82149 2.98811C4.05458 2.75502 4.35155 2.59629 4.67485 2.53198C4.99815 2.46767 5.33326 2.50068 5.63781 2.62682C5.94235 2.75297 6.20265 2.96659 6.38578 3.24067C6.56892 3.51475 6.66667 3.83699 6.66667 4.16662C6.66667 4.60865 6.49107 5.03257 6.17851 5.34513C5.86595 5.6577 5.44203 5.83329 5 5.83329Z" fill="#FF6600"/>
</svg>
