<svg width="16" height="16" viewBox="0 0 16 16" fill="none" xmlns="http://www.w3.org/2000/svg">
<path d="M0.5 5.92951C0.5 6.20601 0.7235 6.42951 1 6.42951H15C15.202 6.42951 15.385 6.30801 15.462 6.12101C15.5395 5.93401 15.4965 5.71901 15.3535 5.57601L13.201 3.42351C13.0055 3.22801 12.6895 3.22801 12.494 3.42351C12.2985 3.61901 12.2985 3.93501 12.494 4.13051L13.793 5.42951H1C0.7235 5.42951 0.5 5.65351 0.5 5.92951Z" fill="#FF6600"/>
<path d="M15 9.5705H0.999973C0.797973 9.5705 0.614973 9.69199 0.537973 9.87899C0.460473 10.066 0.503473 10.281 0.646473 10.424L2.79897 12.5765C2.89647 12.674 3.02447 12.723 3.15247 12.723C3.28047 12.723 3.40847 12.674 3.50597 12.5765C3.70147 12.381 3.70147 12.065 3.50597 11.8695L2.20697 10.5705H15C15.2765 10.5705 15.5 10.347 15.5 10.0705C15.5 9.794 15.2765 9.5705 15 9.5705Z" fill="#FF6600"/>
</svg>
