<svg width="62" height="57" viewBox="0 0 62 57" fill="none" xmlns="http://www.w3.org/2000/svg">
<g filter="url(#filter0_d_170_730)">
<path d="M41 2H21C12.7157 2 6 8.71573 6 17V32C6 40.2843 12.7157 47 21 47H41C49.2843 47 56 40.2843 56 32V17C56 8.71573 49.2843 2 41 2Z" fill="white" fill-opacity="0.7"/>
</g>
<path d="M38.2298 25.6827C38.2176 23.7162 39.2319 22.232 41.2851 21.139C40.1363 19.6976 38.4009 18.9046 36.1095 18.7493C33.9402 18.5992 31.5693 19.8584 30.7016 19.8584C29.7851 19.8584 27.6831 18.8028 26.0332 18.8028C22.6235 18.8511 19 21.1872 19 25.9399C19 27.3437 19.2933 28.7939 19.8799 30.2906C20.6621 32.2571 23.4851 37.0794 26.4304 36.999C27.9702 36.9669 29.0579 36.0399 31.0622 36.0399C33.0053 36.0399 34.0135 36.999 35.7306 36.999C38.7003 36.9615 41.2545 32.5786 42 30.6068C38.0159 28.9618 38.2298 25.7845 38.2298 25.6827ZM34.7713 16.8846C36.4394 15.1486 36.2867 13.568 36.2378 13C34.7651 13.075 33.0603 13.8787 32.0887 14.87C31.0194 15.9309 30.39 17.2436 30.5244 18.7225C32.1193 18.8296 33.5736 18.1116 34.7713 16.8846Z" fill="#070707"/>
<defs>
<filter id="filter0_d_170_730" x="2" y="2" width="58" height="53" filterUnits="userSpaceOnUse" color-interpolation-filters="sRGB">
<feFlood flood-opacity="0" result="BackgroundImageFix"/>
<feColorMatrix in="SourceAlpha" type="matrix" values="0 0 0 0 0 0 0 0 0 0 0 0 0 0 0 0 0 0 127 0" result="hardAlpha"/>
<feOffset dy="4"/>
<feGaussianBlur stdDeviation="2"/>
<feComposite in2="hardAlpha" operator="out"/>
<feColorMatrix type="matrix" values="0 0 0 0 0 0 0 0 0 0 0 0 0 0 0 0 0 0 0.25 0"/>
<feBlend mode="normal" in2="BackgroundImageFix" result="effect1_dropShadow_170_730"/>
<feBlend mode="normal" in="SourceGraphic" in2="effect1_dropShadow_170_730" result="shape"/>
</filter>
</defs>
</svg>
