<svg width="62" height="57" viewBox="0 0 62 57" fill="none" xmlns="http://www.w3.org/2000/svg">
<g filter="url(#filter0_d_170_730)">
<path d="M41 2H21C12.7157 2 6 8.71573 6 17V32C6 40.2843 12.7157 47 21 47H41C49.2843 47 56 40.2843 56 32V17C56 8.71573 49.2843 2 41 2Z" fill="white"/>
</g>
<path d="M38.2298 23.6827C38.2176 21.7162 39.2319 20.232 41.2851 19.139C40.1363 17.6976 38.4009 16.9046 36.1095 16.7493C33.9402 16.5992 31.5693 17.8584 30.7016 17.8584C29.7851 17.8584 27.6831 16.8028 26.0332 16.8028C22.6235 16.8511 19 19.1872 19 23.9399C19 25.3437 19.2933 26.7939 19.8799 28.2906C20.6621 30.2571 23.4851 35.0794 26.4304 34.999C27.9702 34.9669 29.0579 34.0399 31.0622 34.0399C33.0053 34.0399 34.0135 34.999 35.7306 34.999C38.7003 34.9615 41.2545 30.5786 42 28.6068C38.0159 26.9618 38.2298 23.7845 38.2298 23.6827ZM34.7713 14.8846C36.4394 13.1486 36.2867 11.568 36.2378 11C34.7651 11.075 33.0603 11.8787 32.0887 12.87C31.0194 13.9309 30.39 15.2436 30.5244 16.7225C32.1193 16.8296 33.5736 16.1116 34.7713 14.8846Z" fill="#070707"/>
<defs>
<filter id="filter0_d_170_730" x="2" y="2" width="58" height="53" filterUnits="userSpaceOnUse" color-interpolation-filters="sRGB">
<feFlood flood-opacity="0" result="BackgroundImageFix"/>
<feColorMatrix in="SourceAlpha" type="matrix" values="0 0 0 0 0 0 0 0 0 0 0 0 0 0 0 0 0 0 127 0" result="hardAlpha"/>
<feOffset dy="4"/>
<feGaussianBlur stdDeviation="2"/>
<feComposite in2="hardAlpha" operator="out"/>
<feColorMatrix type="matrix" values="0 0 0 0 0 0 0 0 0 0 0 0 0 0 0 0 0 0 0.25 0"/>
<feBlend mode="normal" in2="BackgroundImageFix" result="effect1_dropShadow_170_730"/>
<feBlend mode="normal" in="SourceGraphic" in2="effect1_dropShadow_170_730" result="shape"/>
</filter>
</defs>
</svg>
