<svg width="238" height="48" viewBox="0 0 238 48" fill="none" xmlns="http://www.w3.org/2000/svg">
<g clip-path="url(#clip0_255_1154)">
<g filter="url(#filter0_d_255_1154)">
<path d="M214 0H24C12.9543 0 4 8.9543 4 20C4 31.0457 12.9543 40 24 40H214C225.046 40 234 31.0457 234 20C234 8.9543 225.046 0 214 0Z" fill="white"/>
</g>
<path d="M47.7216 20.5576C47.7109 18.7656 48.593 17.4131 50.3783 16.417C49.3794 15.1035 47.8704 14.3809 45.8778 14.2393C43.9915 14.1025 41.9299 15.25 41.1753 15.25C40.3783 15.25 38.5505 14.2881 37.1158 14.2881C34.1509 14.332 31 16.4609 31 20.792C31 22.0713 31.255 23.3929 31.7651 24.7568C32.4453 26.5488 34.9001 30.9434 37.4612 30.8701C38.8002 30.8408 39.746 29.9961 41.4888 29.9961C43.1785 29.9961 44.0553 30.8701 45.5484 30.8701C48.1307 30.8359 50.3518 26.8418 51 25.0449C47.5356 23.5459 47.7216 20.6504 47.7216 20.5576ZM44.7141 12.54C46.1647 10.958 46.0319 9.51758 45.9894 9C44.7088 9.06836 43.2264 9.80078 42.3815 10.7041C41.4516 11.6709 40.9044 12.8672 41.0213 14.2148C42.4081 14.3125 43.6727 13.6582 44.7141 12.54Z" fill="black"/>
<path d="M69.6163 17.0899C69.5666 16.6247 69.3571 16.2625 68.9878 16.0033C68.622 15.7441 68.1462 15.6144 67.5602 15.6144C67.1483 15.6144 66.795 15.6766 66.5002 15.8009C66.2055 15.9252 65.98 16.0938 65.8237 16.3069C65.6675 16.52 65.5876 16.7632 65.584 17.0367C65.584 17.2639 65.6355 17.461 65.7385 17.6279C65.845 17.7948 65.9888 17.9369 66.17 18.0541C66.3511 18.1677 66.5517 18.2636 66.7719 18.3417C66.992 18.4198 67.214 18.4855 67.4377 18.5388L68.4604 18.7945C68.8724 18.8904 69.2683 19.02 69.6483 19.1833C70.0318 19.3467 70.3745 19.5527 70.6763 19.8012C70.9817 20.0498 71.2232 20.3499 71.4008 20.7014C71.5783 21.053 71.6671 21.4649 71.6671 21.9372C71.6671 22.5764 71.5038 23.1393 71.1771 23.6258C70.8504 24.1088 70.3781 24.487 69.7602 24.7604C69.1458 25.0303 68.4018 25.1652 67.5283 25.1652C66.6795 25.1652 65.9427 25.0338 65.3177 24.7711C64.6962 24.5083 64.2097 24.1247 63.8582 23.6205C63.5102 23.1162 63.3219 22.5019 63.2935 21.7774H65.2378C65.2662 22.1574 65.3834 22.4735 65.5893 22.7256C65.7953 22.9777 66.0634 23.1659 66.3937 23.2902C66.7275 23.4145 67.1004 23.4767 67.5123 23.4767C67.942 23.4767 68.3184 23.4127 68.6415 23.2849C68.9683 23.1535 69.2239 22.9724 69.4086 22.7416C69.5933 22.5072 69.6874 22.2338 69.6909 21.9213C69.6874 21.6372 69.6039 21.4028 69.4406 21.2181C69.2772 21.0299 69.0482 20.8737 68.7534 20.7494C68.4622 20.6215 68.1213 20.5079 67.7307 20.4085L66.4896 20.0889C65.5911 19.8581 64.8809 19.5083 64.3589 19.0395C63.8404 18.5672 63.5812 17.9404 63.5812 17.1592C63.5812 16.5164 63.7552 15.9536 64.1032 15.4706C64.4548 14.9877 64.9324 14.613 65.5361 14.3467C66.1398 14.0768 66.8234 13.9419 67.5869 13.9419C68.361 13.9419 69.0393 14.0768 69.6217 14.3467C70.2076 14.613 70.6675 14.9841 71.0013 15.46C71.3351 15.9323 71.5073 16.4756 71.518 17.0899H69.6163ZM73.3437 25.0001V16.8183H75.272V25.0001H73.3437ZM74.3132 15.6571C74.0078 15.6571 73.745 15.5559 73.5248 15.3534C73.3046 15.1475 73.1945 14.9007 73.1945 14.613C73.1945 14.3218 73.3046 14.075 73.5248 13.8726C73.745 13.6666 74.0078 13.5637 74.3132 13.5637C74.6221 13.5637 74.8849 13.6666 75.1015 13.8726C75.3217 14.075 75.4318 14.3218 75.4318 14.613C75.4318 14.9007 75.3217 15.1475 75.1015 15.3534C74.8849 15.5559 74.6221 15.6571 74.3132 15.6571ZM80.8131 28.2387C80.1206 28.2387 79.5258 28.1446 79.0286 27.9564C78.5315 27.7718 78.132 27.5232 77.8301 27.2107C77.5283 26.8982 77.3187 26.5519 77.2016 26.172L78.9381 25.7512C79.0162 25.911 79.1298 26.069 79.279 26.2252C79.4281 26.385 79.6288 26.5164 79.8809 26.6194C80.1366 26.726 80.458 26.7792 80.845 26.7792C81.3919 26.7792 81.8447 26.6461 82.2033 26.3797C82.562 26.1169 82.7413 25.6837 82.7413 25.08V23.5299H82.6455C82.546 23.7288 82.4004 23.933 82.2087 24.1425C82.0205 24.352 81.7701 24.5278 81.4576 24.6698C81.1486 24.8119 80.7598 24.8829 80.291 24.8829C79.6625 24.8829 79.0925 24.7355 78.5812 24.4408C78.0734 24.1425 77.6685 23.6986 77.3667 23.1091C77.0684 22.5161 76.9192 21.7739 76.9192 20.8826C76.9192 19.9841 77.0684 19.226 77.3667 18.6081C77.6685 17.9866 78.0751 17.5161 78.5865 17.1965C79.0979 16.8733 79.6678 16.7117 80.2964 16.7117C80.7758 16.7117 81.17 16.7934 81.4789 16.9568C81.7914 17.1166 82.04 17.3101 82.2246 17.5374C82.4093 17.7611 82.5496 17.9724 82.6455 18.1713H82.752V16.8183H84.6536V25.1333C84.6536 25.8328 84.4867 26.4117 84.1529 26.8698C83.8191 27.3279 83.3628 27.6706 82.7839 27.8978C82.2051 28.1251 81.5482 28.2387 80.8131 28.2387ZM80.829 23.3701C81.2374 23.3701 81.5854 23.2707 81.8731 23.0718C82.1607 22.873 82.3791 22.5871 82.5283 22.2142C82.6774 21.8414 82.752 21.3939 82.752 20.8719C82.752 20.357 82.6774 19.906 82.5283 19.5189C82.3827 19.1318 82.166 18.8318 81.8784 18.6187C81.5943 18.4021 81.2445 18.2938 80.829 18.2938C80.3994 18.2938 80.0407 18.4056 79.7531 18.6294C79.4654 18.8531 79.2488 19.1603 79.1032 19.5509C78.9576 19.938 78.8848 20.3783 78.8848 20.8719C78.8848 21.3726 78.9576 21.8112 79.1032 22.1876C79.2523 22.5605 79.4707 22.8517 79.7584 23.0612C80.0496 23.2671 80.4065 23.3701 80.829 23.3701ZM88.5581 20.2061V25.0001H86.6298V16.8183H88.4729V18.2086H88.5687C88.757 17.7505 89.057 17.3865 89.469 17.1166C89.8844 16.8467 90.3976 16.7117 91.0084 16.7117C91.573 16.7117 92.0648 16.8325 92.4839 17.074C92.9065 17.3154 93.2332 17.6652 93.464 18.1233C93.6984 18.5814 93.8138 19.1372 93.8102 19.7906V25.0001H91.882V20.0889C91.882 19.542 91.7399 19.1141 91.4558 18.8051C91.1753 18.4962 90.7864 18.3417 90.2893 18.3417C89.9519 18.3417 89.6518 18.4163 89.3891 18.5654C89.1298 18.711 88.9256 18.9223 88.7765 19.1993C88.6309 19.4763 88.5581 19.8119 88.5581 20.2061ZM104.706 21.559V16.8183H106.634V25.0001H104.765V23.5459H104.679C104.495 24.004 104.191 24.3787 103.769 24.6698C103.35 24.961 102.833 25.1066 102.219 25.1066C101.682 25.1066 101.208 24.9877 100.796 24.7497C100.388 24.5083 100.068 24.1585 99.8374 23.7004C99.6066 23.2387 99.4912 22.6812 99.4912 22.0278V16.8183H101.42V21.7295C101.42 22.248 101.562 22.6599 101.846 22.9653C102.13 23.2707 102.503 23.4234 102.964 23.4234C103.248 23.4234 103.524 23.3541 103.79 23.2157C104.056 23.0772 104.275 22.8712 104.445 22.5978C104.619 22.3208 104.706 21.9745 104.706 21.559ZM108.617 28.0683V16.8183H110.514V18.1713H110.625C110.725 17.9724 110.865 17.7611 111.046 17.5374C111.227 17.3101 111.472 17.1166 111.781 16.9568C112.09 16.7934 112.484 16.7117 112.964 16.7117C113.596 16.7117 114.166 16.8733 114.674 17.1965C115.185 17.5161 115.59 17.9902 115.888 18.6187C116.19 19.2437 116.341 20.0108 116.341 20.9198C116.341 21.8183 116.194 22.5818 115.899 23.2103C115.604 23.8389 115.203 24.3183 114.695 24.6485C114.187 24.9788 113.612 25.1439 112.969 25.1439C112.5 25.1439 112.112 25.0658 111.803 24.9095C111.494 24.7533 111.245 24.5651 111.057 24.3449C110.872 24.1212 110.728 23.9099 110.625 23.711H110.545V28.0683H108.617ZM110.508 20.9092C110.508 21.4383 110.583 21.9017 110.732 22.2995C110.885 22.6972 111.103 23.0079 111.387 23.2316C111.675 23.4518 112.023 23.5619 112.431 23.5619C112.857 23.5619 113.214 23.4483 113.502 23.221C113.789 22.9902 114.006 22.6759 114.152 22.2782C114.301 21.8769 114.375 21.4206 114.375 20.9092C114.375 20.4014 114.303 19.9504 114.157 19.5562C114.011 19.162 113.795 18.8531 113.507 18.6294C113.22 18.4056 112.861 18.2938 112.431 18.2938C112.019 18.2938 111.669 18.4021 111.382 18.6187C111.094 18.8353 110.876 19.1389 110.727 19.5296C110.581 19.9202 110.508 20.3801 110.508 20.9092ZM123.402 25.0001L121.09 16.8183H123.055L124.493 22.5711H124.568L126.038 16.8183H127.982L129.453 22.5392H129.533L130.949 16.8183H132.92L130.603 25.0001H128.595L127.061 19.471H126.949L125.415 25.0001H123.402ZM134.267 25.0001V16.8183H136.195V25.0001H134.267ZM135.236 15.6571C134.931 15.6571 134.668 15.5559 134.448 15.3534C134.228 15.1475 134.117 14.9007 134.117 14.613C134.117 14.3218 134.228 14.075 134.448 13.8726C134.668 13.6666 134.931 13.5637 135.236 13.5637C135.545 13.5637 135.808 13.6666 136.024 13.8726C136.245 14.075 136.355 14.3218 136.355 14.613C136.355 14.9007 136.245 15.1475 136.024 15.3534C135.808 15.5559 135.545 15.6571 135.236 15.6571ZM142.263 16.8183V18.3098H137.56V16.8183H142.263ZM138.721 14.8581H140.649V22.5392C140.649 22.7984 140.688 22.9973 140.767 23.1358C140.848 23.2707 140.955 23.363 141.086 23.4127C141.218 23.4625 141.363 23.4873 141.523 23.4873C141.644 23.4873 141.754 23.4784 141.853 23.4607C141.956 23.4429 142.034 23.4269 142.088 23.4127L142.413 24.9202C142.31 24.9557 142.162 24.9948 141.97 25.0374C141.782 25.08 141.551 25.1049 141.278 25.112C140.795 25.1262 140.36 25.0534 139.973 24.8936C139.586 24.7302 139.279 24.4781 139.051 24.1372C138.828 23.7963 138.718 23.3701 138.721 22.8588V14.8581ZM145.98 20.2061V25.0001H144.052V14.091H145.937V18.2086H146.033C146.225 17.7469 146.522 17.3829 146.923 17.1166C147.328 16.8467 147.843 16.7117 148.468 16.7117C149.036 16.7117 149.531 16.8307 149.954 17.0686C150.376 17.3066 150.703 17.6546 150.934 18.1127C151.168 18.5708 151.285 19.1301 151.285 19.7906V25.0001H149.357V20.0889C149.357 19.5385 149.215 19.1105 148.931 18.8051C148.651 18.4962 148.256 18.3417 147.749 18.3417C147.408 18.3417 147.102 18.4163 146.832 18.5654C146.566 18.711 146.356 18.9223 146.204 19.1993C146.055 19.4763 145.98 19.8119 145.98 20.2061ZM158.458 25.0001H156.348L160.189 14.091H162.629L166.475 25.0001H164.365L161.451 16.3282H161.366L158.458 25.0001ZM158.527 20.7228H164.28V22.3101H158.527V20.7228ZM167.826 28.0683V16.8183H169.723V18.1713H169.834C169.934 17.9724 170.074 17.7611 170.255 17.5374C170.436 17.3101 170.681 17.1166 170.99 16.9568C171.299 16.7934 171.693 16.7117 172.173 16.7117C172.805 16.7117 173.375 16.8733 173.883 17.1965C174.394 17.5161 174.799 17.9902 175.097 18.6187C175.399 19.2437 175.55 20.0108 175.55 20.9198C175.55 21.8183 175.403 22.5818 175.108 23.2103C174.813 23.8389 174.412 24.3183 173.904 24.6485C173.396 24.9788 172.821 25.1439 172.178 25.1439C171.709 25.1439 171.321 25.0658 171.012 24.9095C170.703 24.7533 170.454 24.5651 170.266 24.3449C170.081 24.1212 169.937 23.9099 169.834 23.711H169.754V28.0683H167.826ZM169.717 20.9092C169.717 21.4383 169.792 21.9017 169.941 22.2995C170.094 22.6972 170.312 23.0079 170.596 23.2316C170.884 23.4518 171.232 23.5619 171.64 23.5619C172.066 23.5619 172.423 23.4483 172.711 23.221C172.998 22.9902 173.215 22.6759 173.361 22.2782C173.51 21.8769 173.584 21.4206 173.584 20.9092C173.584 20.4014 173.512 19.9504 173.366 19.5562C173.22 19.162 173.004 18.8531 172.716 18.6294C172.428 18.4056 172.07 18.2938 171.64 18.2938C171.228 18.2938 170.878 18.4021 170.591 18.6187C170.303 18.8353 170.085 19.1389 169.936 19.5296C169.79 19.9202 169.717 20.3801 169.717 20.9092ZM177.201 28.0683V16.8183H179.098V18.1713H179.209C179.309 17.9724 179.449 17.7611 179.63 17.5374C179.811 17.3101 180.056 17.1166 180.365 16.9568C180.674 16.7934 181.068 16.7117 181.548 16.7117C182.18 16.7117 182.75 16.8733 183.258 17.1965C183.769 17.5161 184.174 17.9902 184.472 18.6187C184.774 19.2437 184.925 20.0108 184.925 20.9198C184.925 21.8183 184.778 22.5818 184.483 23.2103C184.188 23.8389 183.787 24.3183 183.279 24.6485C182.771 24.9788 182.196 25.1439 181.553 25.1439C181.084 25.1439 180.696 25.0658 180.387 24.9095C180.078 24.7533 179.829 24.5651 179.641 24.3449C179.456 24.1212 179.312 23.9099 179.209 23.711H179.129V28.0683H177.201ZM179.092 20.9092C179.092 21.4383 179.167 21.9017 179.316 22.2995C179.469 22.6972 179.687 23.0079 179.971 23.2316C180.259 23.4518 180.607 23.5619 181.015 23.5619C181.441 23.5619 181.798 23.4483 182.086 23.221C182.373 22.9902 182.59 22.6759 182.736 22.2782C182.885 21.8769 182.959 21.4206 182.959 20.9092C182.959 20.4014 182.887 19.9504 182.741 19.5562C182.595 19.162 182.379 18.8531 182.091 18.6294C181.803 18.4056 181.445 18.2938 181.015 18.2938C180.603 18.2938 180.253 18.4021 179.966 18.6187C179.678 18.8353 179.46 19.1389 179.311 19.5296C179.165 19.9202 179.092 20.3801 179.092 20.9092ZM188.504 14.091V25.0001H186.576V14.091H188.504ZM194.11 25.1599C193.289 25.1599 192.581 24.9894 191.984 24.6485C191.391 24.3041 190.935 23.8176 190.615 23.189C190.296 22.5569 190.136 21.813 190.136 20.9571C190.136 20.1155 190.296 19.3769 190.615 18.7412C190.938 18.102 191.389 17.6049 191.968 17.2497C192.547 16.8911 193.227 16.7117 194.008 16.7117C194.513 16.7117 194.988 16.7934 195.436 16.9568C195.887 17.1166 196.285 17.3652 196.629 17.7025C196.977 18.0399 197.25 18.4696 197.449 18.9916C197.648 19.51 197.748 20.1279 197.748 20.8453V21.4365H191.041V20.1368H195.899C195.896 19.7675 195.816 19.439 195.66 19.1514C195.503 18.8602 195.285 18.6311 195.004 18.4642C194.727 18.2973 194.404 18.2139 194.035 18.2139C193.641 18.2139 193.295 18.3098 192.996 18.5015C192.698 18.6897 192.465 18.9383 192.298 19.2473C192.135 19.5527 192.052 19.8882 192.048 20.254V21.3886C192.048 21.8644 192.135 22.2728 192.309 22.6137C192.483 22.9511 192.726 23.2103 193.039 23.3914C193.351 23.569 193.717 23.6578 194.136 23.6578C194.417 23.6578 194.671 23.6187 194.898 23.5406C195.125 23.4589 195.322 23.3399 195.489 23.1837C195.656 23.0274 195.782 22.8339 195.867 22.6031L197.668 22.8055C197.554 23.2813 197.337 23.6968 197.018 24.0519C196.702 24.4035 196.297 24.6769 195.803 24.8723C195.31 25.064 194.745 25.1599 194.11 25.1599Z" fill="black"/>
</g>
<defs>
<filter id="filter0_d_255_1154" x="0" y="0" width="238" height="48" filterUnits="userSpaceOnUse" color-interpolation-filters="sRGB">
<feFlood flood-opacity="0" result="BackgroundImageFix"/>
<feColorMatrix in="SourceAlpha" type="matrix" values="0 0 0 0 0 0 0 0 0 0 0 0 0 0 0 0 0 0 127 0" result="hardAlpha"/>
<feOffset dy="4"/>
<feGaussianBlur stdDeviation="2"/>
<feComposite in2="hardAlpha" operator="out"/>
<feColorMatrix type="matrix" values="0 0 0 0 0 0 0 0 0 0 0 0 0 0 0 0 0 0 0.25 0"/>
<feBlend mode="normal" in2="BackgroundImageFix" result="effect1_dropShadow_255_1154"/>
<feBlend mode="normal" in="SourceGraphic" in2="effect1_dropShadow_255_1154" result="shape"/>
</filter>
<clipPath id="clip0_255_1154">
<rect width="238" height="48" fill="white"/>
</clipPath>
</defs>
</svg>
