<svg width="238" height="48" viewBox="0 0 238 48" fill="none" xmlns="http://www.w3.org/2000/svg">
<g clip-path="url(#clip0_520_1142)">
<g filter="url(#filter0_d_520_1142)">
<path d="M214 0H24C12.9543 0 4 8.9543 4 20C4 31.0457 12.9543 40 24 40H214C225.046 40 234 31.0457 234 20C234 8.9543 225.046 0 214 0Z" fill="white"/>
</g>
<path d="M47.7216 20.5576C47.7109 18.7656 48.593 17.4131 50.3783 16.417C49.3794 15.1035 47.8703 14.3809 45.8778 14.2393C43.9915 14.1025 41.9299 15.25 41.1753 15.25C40.3783 15.25 38.5505 14.2881 37.1158 14.2881C34.1509 14.332 31 16.4609 31 20.792C31 22.0713 31.255 23.3929 31.7651 24.7568C32.4453 26.5488 34.9001 30.9434 37.4612 30.8701C38.8002 30.8408 39.746 29.9961 41.4888 29.9961C43.1785 29.9961 44.0553 30.8701 45.5484 30.8701C48.1307 30.8359 50.3518 26.8418 51 25.0449C47.5356 23.5459 47.7216 20.6504 47.7216 20.5576ZM44.7141 12.54C46.1647 10.958 46.0319 9.51758 45.9894 9C44.7088 9.06836 43.2264 9.80078 42.3815 10.7041C41.4516 11.6709 40.9044 12.8672 41.0213 14.2148C42.4081 14.3125 43.6727 13.6582 44.7141 12.54Z" fill="black"/>
<path d="M72.2383 17.0899C72.1886 16.6247 71.9791 16.2625 71.6098 16.0033C71.244 15.7441 70.7681 15.6144 70.1822 15.6144C69.7703 15.6144 69.4169 15.6766 69.1222 15.8009C68.8274 15.9252 68.6019 16.0938 68.4457 16.3069C68.2894 16.52 68.2095 16.7632 68.206 17.0367C68.206 17.2639 68.2575 17.461 68.3605 17.6279C68.467 17.7948 68.6108 17.9369 68.7919 18.0541C68.973 18.1677 69.1737 18.2636 69.3938 18.3417C69.614 18.4198 69.836 18.4855 70.0597 18.5388L71.0824 18.7945C71.4943 18.8904 71.8903 19.02 72.2703 19.1833C72.6538 19.3467 72.9965 19.5527 73.2983 19.8012C73.6037 20.0498 73.8452 20.3499 74.0227 20.7014C74.2003 21.053 74.2891 21.4649 74.2891 21.9372C74.2891 22.5764 74.1257 23.1393 73.799 23.6258C73.4723 24.1088 73 24.487 72.3821 24.7604C71.7678 25.0303 71.0238 25.1652 70.1502 25.1652C69.3015 25.1652 68.5647 25.0338 67.9397 24.7711C67.3182 24.5083 66.8317 24.1247 66.4801 23.6205C66.1321 23.1162 65.9439 22.5019 65.9155 21.7774H67.8598C67.8882 22.1574 68.0053 22.4735 68.2113 22.7256C68.4173 22.9777 68.6854 23.1659 69.0156 23.2902C69.3495 23.4145 69.7223 23.4767 70.1343 23.4767C70.5639 23.4767 70.9404 23.4127 71.2635 23.2849C71.5902 23.1535 71.8459 22.9724 72.0306 22.7416C72.2152 22.5072 72.3093 22.2338 72.3129 21.9213C72.3093 21.6372 72.2259 21.4028 72.0625 21.2181C71.8992 21.0299 71.6701 20.8737 71.3754 20.7494C71.0842 20.6215 70.7433 20.5079 70.3526 20.4085L69.1115 20.0889C68.2131 19.8581 67.5029 19.5083 66.9808 19.0395C66.4624 18.5672 66.2031 17.9404 66.2031 17.1592C66.2031 16.5164 66.3772 15.9536 66.7252 15.4706C67.0767 14.9877 67.5544 14.613 68.158 14.3467C68.7617 14.0768 69.4453 13.9419 70.2088 13.9419C70.983 13.9419 71.6612 14.0768 72.2436 14.3467C72.8296 14.613 73.2894 14.9841 73.6232 15.46C73.9571 15.9323 74.1293 16.4756 74.1399 17.0899H72.2383ZM75.9657 25.0001V16.8183H77.8939V25.0001H75.9657ZM76.9351 15.6571C76.6297 15.6571 76.3669 15.5559 76.1468 15.3534C75.9266 15.1475 75.8165 14.9007 75.8165 14.613C75.8165 14.3218 75.9266 14.075 76.1468 13.8726C76.3669 13.6666 76.6297 13.5637 76.9351 13.5637C77.2441 13.5637 77.5069 13.6666 77.7235 13.8726C77.9436 14.075 78.0537 14.3218 78.0537 14.613C78.0537 14.9007 77.9436 15.1475 77.7235 15.3534C77.5069 15.5559 77.2441 15.6571 76.9351 15.6571ZM83.435 28.2387C82.7426 28.2387 82.1477 28.1446 81.6506 27.9564C81.1534 27.7718 80.7539 27.5232 80.4521 27.2107C80.1502 26.8982 79.9407 26.5519 79.8235 26.172L81.56 25.7512C81.6382 25.911 81.7518 26.069 81.9009 26.2252C82.0501 26.385 82.2507 26.5164 82.5029 26.6194C82.7585 26.726 83.0799 26.7792 83.467 26.7792C84.0139 26.7792 84.4666 26.6461 84.8253 26.3797C85.184 26.1169 85.3633 25.6837 85.3633 25.08V23.5299H85.2674C85.168 23.7288 85.0224 23.933 84.8306 24.1425C84.6424 24.352 84.3921 24.5278 84.0796 24.6698C83.7706 24.8119 83.3818 24.8829 82.913 24.8829C82.2845 24.8829 81.7145 24.7355 81.2031 24.4408C80.6953 24.1425 80.2905 23.6986 79.9887 23.1091C79.6904 22.5161 79.5412 21.7739 79.5412 20.8826C79.5412 19.9841 79.6904 19.226 79.9887 18.6081C80.2905 17.9866 80.6971 17.5161 81.2085 17.1965C81.7198 16.8733 82.2898 16.7117 82.9183 16.7117C83.3977 16.7117 83.7919 16.7934 84.1009 16.9568C84.4134 17.1166 84.662 17.3101 84.8466 17.5374C85.0313 17.7611 85.1715 17.9724 85.2674 18.1713H85.374V16.8183H87.2756V25.1333C87.2756 25.8328 87.1087 26.4117 86.7749 26.8698C86.4411 27.3279 85.9848 27.6706 85.4059 27.8978C84.8271 28.1251 84.1701 28.2387 83.435 28.2387ZM83.451 23.3701C83.8594 23.3701 84.2074 23.2707 84.4951 23.0718C84.7827 22.873 85.0011 22.5871 85.1502 22.2142C85.2994 21.8414 85.374 21.3939 85.374 20.8719C85.374 20.357 85.2994 19.906 85.1502 19.5189C85.0046 19.1318 84.788 18.8318 84.5004 18.6187C84.2163 18.4021 83.8665 18.2938 83.451 18.2938C83.0213 18.2938 82.6627 18.4056 82.375 18.6294C82.0874 18.8531 81.8708 19.1603 81.7252 19.5509C81.5796 19.938 81.5068 20.3783 81.5068 20.8719C81.5068 21.3726 81.5796 21.8112 81.7252 22.1876C81.8743 22.5605 82.0927 22.8517 82.3803 23.0612C82.6715 23.2671 83.0284 23.3701 83.451 23.3701ZM91.1801 20.2061V25.0001H89.2518V16.8183H91.0948V18.2086H91.1907C91.3789 17.7505 91.679 17.3865 92.0909 17.1166C92.5064 16.8467 93.0196 16.7117 93.6303 16.7117C94.195 16.7117 94.6868 16.8325 95.1058 17.074C95.5284 17.3154 95.8551 17.6652 96.086 18.1233C96.3203 18.5814 96.4357 19.1372 96.4322 19.7906V25.0001H94.5039V20.0889C94.5039 19.542 94.3619 19.1141 94.0778 18.8051C93.7973 18.4962 93.4084 18.3417 92.9112 18.3417C92.5739 18.3417 92.2738 18.4163 92.011 18.5654C91.7518 18.711 91.5476 18.9223 91.3985 19.1993C91.2529 19.4763 91.1801 19.8119 91.1801 20.2061ZM104.175 14.091V25.0001H102.199V14.091H104.175ZM108.158 20.2061V25.0001H106.23V16.8183H108.073V18.2086H108.168C108.357 17.7505 108.657 17.3865 109.069 17.1166C109.484 16.8467 109.997 16.7117 110.608 16.7117C111.173 16.7117 111.665 16.8325 112.084 17.074C112.506 17.3154 112.833 17.6652 113.064 18.1233C113.298 18.5814 113.413 19.1372 113.41 19.7906V25.0001H111.482V20.0889C111.482 19.542 111.34 19.1141 111.056 18.8051C110.775 18.4962 110.386 18.3417 109.889 18.3417C109.552 18.3417 109.252 18.4163 108.989 18.5654C108.73 18.711 108.525 18.9223 108.376 19.1993C108.231 19.4763 108.158 19.8119 108.158 20.2061ZM120.779 25.0001L118.468 16.8183H120.433L121.871 22.5711H121.946L123.416 16.8183H125.36L126.831 22.5392H126.91L128.327 16.8183H130.298L127.981 25.0001H125.973L124.439 19.471H124.327L122.793 25.0001H120.779ZM131.645 25.0001V16.8183H133.573V25.0001H131.645ZM132.614 15.6571C132.309 15.6571 132.046 15.5559 131.826 15.3534C131.606 15.1475 131.495 14.9007 131.495 14.613C131.495 14.3218 131.606 14.075 131.826 13.8726C132.046 13.6666 132.309 13.5637 132.614 13.5637C132.923 13.5637 133.186 13.6666 133.402 13.8726C133.623 14.075 133.733 14.3218 133.733 14.613C133.733 14.9007 133.623 15.1475 133.402 15.3534C133.186 15.5559 132.923 15.6571 132.614 15.6571ZM139.641 16.8183V18.3098H134.938V16.8183H139.641ZM136.099 14.8581H138.027V22.5392C138.027 22.7984 138.066 22.9973 138.144 23.1358C138.226 23.2707 138.333 23.363 138.464 23.4127C138.595 23.4625 138.741 23.4873 138.901 23.4873C139.022 23.4873 139.132 23.4784 139.231 23.4607C139.334 23.4429 139.412 23.4269 139.466 23.4127L139.79 24.9202C139.687 24.9557 139.54 24.9948 139.348 25.0374C139.16 25.08 138.929 25.1049 138.656 25.112C138.173 25.1262 137.738 25.0534 137.351 24.8936C136.964 24.7302 136.657 24.4781 136.429 24.1372C136.206 23.7963 136.095 23.3701 136.099 22.8588V14.8581ZM143.358 20.2061V25.0001H141.43V14.091H143.315V18.2086H143.411C143.603 17.7469 143.9 17.3829 144.301 17.1166C144.706 16.8467 145.221 16.7117 145.846 16.7117C146.414 16.7117 146.909 16.8307 147.332 17.0686C147.754 17.3066 148.081 17.6546 148.312 18.1127C148.546 18.5708 148.663 19.1301 148.663 19.7906V25.0001H146.735V20.0889C146.735 19.5385 146.593 19.1105 146.309 18.8051C146.028 18.4962 145.634 18.3417 145.126 18.3417C144.786 18.3417 144.48 18.4163 144.21 18.5654C143.944 18.711 143.734 18.9223 143.582 19.1993C143.433 19.4763 143.358 19.8119 143.358 20.2061ZM155.836 25.0001H153.726L157.567 14.091H160.007L163.852 25.0001H161.743L158.829 16.3282H158.744L155.836 25.0001ZM155.905 20.7228H161.658V22.3101H155.905V20.7228ZM165.204 28.0683V16.8183H167.1V18.1713H167.212C167.312 17.9724 167.452 17.7611 167.633 17.5374C167.814 17.3101 168.059 17.1166 168.368 16.9568C168.677 16.7934 169.071 16.7117 169.551 16.7117C170.183 16.7117 170.753 16.8733 171.261 17.1965C171.772 17.5161 172.177 17.9902 172.475 18.6187C172.777 19.2437 172.928 20.0108 172.928 20.9198C172.928 21.8183 172.78 22.5818 172.486 23.2103C172.191 23.8389 171.79 24.3183 171.282 24.6485C170.774 24.9788 170.199 25.1439 169.556 25.1439C169.087 25.1439 168.698 25.0658 168.39 24.9095C168.081 24.7533 167.832 24.5651 167.644 24.3449C167.459 24.1212 167.315 23.9099 167.212 23.711H167.132V28.0683H165.204ZM167.095 20.9092C167.095 21.4383 167.17 21.9017 167.319 22.2995C167.472 22.6972 167.69 23.0079 167.974 23.2316C168.262 23.4518 168.61 23.5619 169.018 23.5619C169.444 23.5619 169.801 23.4483 170.089 23.221C170.376 22.9902 170.593 22.6759 170.739 22.2782C170.888 21.8769 170.962 21.4206 170.962 20.9092C170.962 20.4014 170.89 19.9504 170.744 19.5562C170.598 19.162 170.382 18.8531 170.094 18.6294C169.806 18.4056 169.448 18.2938 169.018 18.2938C168.606 18.2938 168.256 18.4021 167.969 18.6187C167.681 18.8353 167.463 19.1389 167.314 19.5296C167.168 19.9202 167.095 20.3801 167.095 20.9092ZM174.579 28.0683V16.8183H176.475V18.1713H176.587C176.687 17.9724 176.827 17.7611 177.008 17.5374C177.189 17.3101 177.434 17.1166 177.743 16.9568C178.052 16.7934 178.446 16.7117 178.926 16.7117C179.558 16.7117 180.128 16.8733 180.636 17.1965C181.147 17.5161 181.552 17.9902 181.85 18.6187C182.152 19.2437 182.303 20.0108 182.303 20.9198C182.303 21.8183 182.155 22.5818 181.861 23.2103C181.566 23.8389 181.165 24.3183 180.657 24.6485C180.149 24.9788 179.574 25.1439 178.931 25.1439C178.462 25.1439 178.073 25.0658 177.765 24.9095C177.456 24.7533 177.207 24.5651 177.019 24.3449C176.834 24.1212 176.69 23.9099 176.587 23.711H176.507V28.0683H174.579ZM176.47 20.9092C176.47 21.4383 176.545 21.9017 176.694 22.2995C176.847 22.6972 177.065 23.0079 177.349 23.2316C177.637 23.4518 177.985 23.5619 178.393 23.5619C178.819 23.5619 179.176 23.4483 179.464 23.221C179.751 22.9902 179.968 22.6759 180.114 22.2782C180.263 21.8769 180.337 21.4206 180.337 20.9092C180.337 20.4014 180.265 19.9504 180.119 19.5562C179.973 19.162 179.757 18.8531 179.469 18.6294C179.181 18.4056 178.823 18.2938 178.393 18.2938C177.981 18.2938 177.631 18.4021 177.344 18.6187C177.056 18.8353 176.838 19.1389 176.689 19.5296C176.543 19.9202 176.47 20.3801 176.47 20.9092ZM185.882 14.091V25.0001H183.954V14.091H185.882ZM191.487 25.1599C190.667 25.1599 189.959 24.9894 189.362 24.6485C188.769 24.3041 188.313 23.8176 187.993 23.189C187.674 22.5569 187.514 21.813 187.514 20.9571C187.514 20.1155 187.674 19.3769 187.993 18.7412C188.316 18.102 188.767 17.6049 189.346 17.2497C189.925 16.8911 190.605 16.7117 191.386 16.7117C191.89 16.7117 192.366 16.7934 192.814 16.9568C193.265 17.1166 193.663 17.3652 194.007 17.7025C194.355 18.0399 194.628 18.4696 194.827 18.9916C195.026 19.51 195.126 20.1279 195.126 20.8453V21.4365H188.419V20.1368H193.277C193.274 19.7675 193.194 19.439 193.038 19.1514C192.881 18.8602 192.663 18.6311 192.382 18.4642C192.105 18.2973 191.782 18.2139 191.413 18.2139C191.019 18.2139 190.672 18.3098 190.374 18.5015C190.076 18.6897 189.843 18.9383 189.676 19.2473C189.513 19.5527 189.43 19.8882 189.426 20.254V21.3886C189.426 21.8644 189.513 22.2728 189.687 22.6137C189.861 22.9511 190.104 23.2103 190.417 23.3914C190.729 23.569 191.095 23.6578 191.514 23.6578C191.795 23.6578 192.049 23.6187 192.276 23.5406C192.503 23.4589 192.7 23.3399 192.867 23.1837C193.034 23.0274 193.16 22.8339 193.245 22.6031L195.046 22.8055C194.932 23.2813 194.715 23.6968 194.396 24.0519C194.08 24.4035 193.675 24.6769 193.181 24.8723C192.688 25.064 192.123 25.1599 191.487 25.1599Z" fill="black"/>
</g>
<defs>
<filter id="filter0_d_520_1142" x="0" y="0" width="238" height="48" filterUnits="userSpaceOnUse" color-interpolation-filters="sRGB">
<feFlood flood-opacity="0" result="BackgroundImageFix"/>
<feColorMatrix in="SourceAlpha" type="matrix" values="0 0 0 0 0 0 0 0 0 0 0 0 0 0 0 0 0 0 127 0" result="hardAlpha"/>
<feOffset dy="4"/>
<feGaussianBlur stdDeviation="2"/>
<feComposite in2="hardAlpha" operator="out"/>
<feColorMatrix type="matrix" values="0 0 0 0 0 0 0 0 0 0 0 0 0 0 0 0 0 0 0.25 0"/>
<feBlend mode="normal" in2="BackgroundImageFix" result="effect1_dropShadow_520_1142"/>
<feBlend mode="normal" in="SourceGraphic" in2="effect1_dropShadow_520_1142" result="shape"/>
</filter>
<clipPath id="clip0_520_1142">
<rect width="238" height="48" fill="white"/>
</clipPath>
</defs>
</svg>
