<svg width="230" height="40" viewBox="0 0 230 40" fill="none" xmlns="http://www.w3.org/2000/svg">
<g clip-path="url(#clip0_170_726)">
<path d="M210 0H20C8.9543 0 0 8.9543 0 20C0 31.0457 8.9543 40 20 40H210C221.046 40 230 31.0457 230 20C230 8.9543 221.046 0 210 0Z" fill="black" fill-opacity="0.7"/>
<path d="M43.7216 20.5576C43.7109 18.7656 44.593 17.4131 46.3783 16.417C45.3794 15.1035 43.8703 14.3809 41.8778 14.2393C39.9915 14.1025 37.9299 15.25 37.1753 15.25C36.3783 15.25 34.5505 14.2881 33.1158 14.2881C30.1509 14.332 27 16.4609 27 20.792C27 22.0713 27.255 23.3929 27.7651 24.7568C28.4453 26.5488 30.9001 30.9434 33.4612 30.8701C34.8002 30.8408 35.746 29.9961 37.4888 29.9961C39.1785 29.9961 40.0553 30.8701 41.5484 30.8701C44.1307 30.8359 46.3518 26.8418 47 25.0449C43.5356 23.5459 43.7216 20.6504 43.7216 20.5576ZM40.7141 12.54C42.1647 10.958 42.0319 9.51758 41.9894 9C40.7088 9.06836 39.2264 9.80078 38.3815 10.7041C37.4516 11.6709 36.9044 12.8672 37.0213 14.2148C38.4081 14.3125 39.6727 13.6582 40.7141 12.54Z" fill="white"/>
<path d="M65.6167 17.0897C65.567 16.6245 65.3575 16.2623 64.9882 16.0031C64.6224 15.7439 64.1466 15.6142 63.5606 15.6142C63.1487 15.6142 62.7954 15.6764 62.5006 15.8007C62.2059 15.925 61.9804 16.0936 61.8241 16.3067C61.6679 16.5198 61.588 16.763 61.5844 17.0365C61.5844 17.2637 61.6359 17.4608 61.7389 17.6277C61.8454 17.7946 61.9892 17.9367 62.1704 18.0539C62.3515 18.1675 62.5521 18.2634 62.7723 18.3415C62.9924 18.4196 63.2144 18.4853 63.4381 18.5386L64.4608 18.7943C64.8728 18.8902 65.2687 19.0198 65.6487 19.1831C66.0322 19.3465 66.3749 19.5525 66.6767 19.801C66.9821 20.0496 67.2236 20.3497 67.4012 20.7012C67.5787 21.0528 67.6675 21.4647 67.6675 21.937C67.6675 22.5762 67.5042 23.1391 67.1775 23.6256C66.8508 24.1086 66.3785 24.4868 65.7606 24.7602C65.1462 25.0301 64.4022 25.165 63.5287 25.165C62.6799 25.165 61.9431 25.0336 61.3181 24.7709C60.6966 24.5081 60.2101 24.1245 59.8586 23.6203C59.5106 23.116 59.3223 22.5017 59.2939 21.7772H61.2382C61.2666 22.1572 61.3838 22.4733 61.5897 22.7254C61.7957 22.9775 62.0638 23.1657 62.3941 23.29C62.7279 23.4143 63.1008 23.4765 63.5127 23.4765C63.9424 23.4765 64.3188 23.4125 64.6419 23.2847C64.9687 23.1533 65.2243 22.9722 65.409 22.7414C65.5937 22.507 65.6878 22.2336 65.6913 21.9211C65.6878 21.637 65.6043 21.4026 65.441 21.2179C65.2776 21.0297 65.0486 20.8735 64.7538 20.7492C64.4626 20.6213 64.1217 20.5077 63.7311 20.4083L62.49 20.0887C61.5915 19.8579 60.8813 19.5081 60.3593 19.0393C59.8408 18.567 59.5816 17.9402 59.5816 17.159C59.5816 16.5162 59.7556 15.9534 60.1036 15.4704C60.4552 14.9875 60.9328 14.6128 61.5365 14.3465C62.1402 14.0766 62.8238 13.9417 63.5873 13.9417C64.3614 13.9417 65.0398 14.0766 65.6222 14.3465C66.2081 14.6128 66.668 14.9839 67.0018 15.4598C67.3356 15.9321 67.5077 16.4754 67.5184 17.0897H65.6167ZM69.3442 24.9999V16.8181H71.2724V24.9999H69.3442ZM70.3136 15.6569C70.0082 15.6569 69.7454 15.5557 69.5252 15.3532C69.305 15.1473 69.195 14.9005 69.195 14.6128C69.195 14.3216 69.305 14.0748 69.5252 13.8724C69.7454 13.6664 70.0082 13.5635 70.3136 13.5635C70.6225 13.5635 70.8853 13.6664 71.1019 13.8724C71.3221 14.0748 71.4322 14.3216 71.4322 14.6128C71.4322 14.9005 71.3221 15.1473 71.1019 15.3532C70.8853 15.5557 70.6225 15.6569 70.3136 15.6569ZM76.8135 28.2385C76.121 28.2385 75.5262 28.1444 75.029 27.9562C74.5319 27.7716 74.1324 27.523 73.8305 27.2105C73.5287 26.898 73.3191 26.5517 73.202 26.1718L74.9385 25.751C75.0166 25.9108 75.1302 26.0688 75.2794 26.225C75.4285 26.3848 75.6292 26.5162 75.8813 26.6192C76.137 26.7258 76.4584 26.779 76.8454 26.779C77.3923 26.779 77.8451 26.6459 78.2037 26.3795C78.5624 26.1167 78.7417 25.6835 78.7417 25.0798V23.5297H78.6459C78.5464 23.7286 78.4008 23.9328 78.2091 24.1423C78.0209 24.3518 77.7705 24.5276 77.458 24.6696C77.149 24.8117 76.7602 24.8827 76.2914 24.8827C75.6629 24.8827 75.0929 24.7353 74.5816 24.4406C74.0738 24.1423 73.6689 23.6984 73.3671 23.1089C73.0688 22.5159 72.9196 21.7737 72.9196 20.8824C72.9196 19.9839 73.0688 19.2258 73.3671 18.6079C73.6689 17.9864 74.0755 17.5159 74.5869 17.1963C75.0983 16.8731 75.6682 16.7115 76.2968 16.7115C76.7762 16.7115 77.1704 16.7932 77.4793 16.9566C77.7918 17.1164 78.0404 17.3099 78.225 17.5372C78.4097 17.7609 78.55 17.9722 78.6459 18.1711H78.7524V16.8181H80.654V25.1331C80.654 25.8326 80.4871 26.4115 80.1533 26.8696C79.8195 27.3277 79.3632 27.6704 78.7843 27.8976C78.2055 28.1249 77.5486 28.2385 76.8135 28.2385ZM76.8294 23.3699C77.2378 23.3699 77.5858 23.2705 77.8735 23.0716C78.1611 22.8728 78.3795 22.5869 78.5287 22.214C78.6778 21.8412 78.7524 21.3937 78.7524 20.8717C78.7524 20.3568 78.6778 19.9058 78.5287 19.5187C78.3831 19.1316 78.1664 18.8316 77.8788 18.6185C77.5947 18.4019 77.2449 18.2936 76.8294 18.2936C76.3998 18.2936 76.0411 18.4054 75.7535 18.6292C75.4658 18.8529 75.2492 19.1601 75.1036 19.5507C74.958 19.9378 74.8853 20.3781 74.8853 20.8717C74.8853 21.3724 74.958 21.811 75.1036 22.1874C75.2527 22.5603 75.4711 22.8515 75.7588 23.061C76.05 23.2669 76.4069 23.3699 76.8294 23.3699ZM84.5585 20.2059V24.9999H82.6302V16.8181H84.4733V18.2084H84.5691C84.7574 17.7503 85.0574 17.3863 85.4694 17.1164C85.8848 16.8465 86.398 16.7115 87.0088 16.7115C87.5734 16.7115 88.0652 16.8323 88.4843 17.0738C88.9069 17.3152 89.2337 17.665 89.4645 18.1231C89.6989 18.5812 89.8142 19.137 89.8106 19.7904V24.9999H87.8825V20.0887C87.8825 19.5418 87.7403 19.1139 87.4562 18.8049C87.1757 18.496 86.7868 18.3415 86.2897 18.3415C85.9523 18.3415 85.6522 18.4161 85.3895 18.5652C85.1302 18.7108 84.9261 18.9221 84.777 19.1991C84.6314 19.4761 84.5585 19.8117 84.5585 20.2059ZM100.706 21.5588V16.8181H102.634V24.9999H100.765V23.5457H100.679C100.495 24.0038 100.191 24.3785 99.7689 24.6696C99.3499 24.9608 98.8332 25.1064 98.2188 25.1064C97.6826 25.1064 97.2085 24.9875 96.7966 24.7495C96.3882 24.5081 96.0686 24.1583 95.8378 23.7002C95.607 23.2385 95.4916 22.681 95.4916 22.0276V16.8181H97.4198V21.7293C97.4198 22.2478 97.562 22.6597 97.8461 22.9651C98.1301 23.2705 98.5029 23.4232 98.9646 23.4232C99.2487 23.4232 99.5239 23.3539 99.7902 23.2155C100.056 23.077 100.275 22.871 100.445 22.5976C100.619 22.3206 100.706 21.9743 100.706 21.5588ZM104.617 28.0681V16.8181H106.514V18.1711H106.625C106.725 17.9722 106.865 17.7609 107.046 17.5372C107.227 17.3099 107.472 17.1164 107.781 16.9566C108.09 16.7932 108.484 16.7115 108.964 16.7115C109.596 16.7115 110.166 16.8731 110.674 17.1963C111.185 17.5159 111.59 17.99 111.888 18.6185C112.19 19.2435 112.341 20.0106 112.341 20.9196C112.341 21.8181 112.194 22.5816 111.899 23.2101C111.604 23.8387 111.203 24.3181 110.695 24.6483C110.187 24.9786 109.612 25.1437 108.969 25.1437C108.5 25.1437 108.112 25.0656 107.803 24.9093C107.494 24.7531 107.245 24.5649 107.057 24.3447C106.872 24.121 106.728 23.9097 106.625 23.7108H106.545V28.0681H104.617ZM106.508 20.909C106.508 21.4381 106.583 21.9015 106.732 22.2993C106.885 22.697 107.103 23.0077 107.387 23.2314C107.675 23.4516 108.023 23.5617 108.431 23.5617C108.857 23.5617 109.214 23.4481 109.502 23.2208C109.789 22.99 110.006 22.6757 110.152 22.278C110.301 21.8767 110.375 21.4204 110.375 20.909C110.375 20.4012 110.303 19.9502 110.157 19.556C110.011 19.1618 109.795 18.8529 109.507 18.6292C109.22 18.4054 108.861 18.2936 108.431 18.2936C108.019 18.2936 107.669 18.4019 107.382 18.6185C107.094 18.8351 106.876 19.1387 106.727 19.5294C106.581 19.92 106.508 20.3799 106.508 20.909ZM119.402 24.9999L117.09 16.8181H119.055L120.493 22.5709H120.568L122.038 16.8181H123.982L125.453 22.539H125.533L126.949 16.8181H128.92L126.603 24.9999H124.595L123.061 19.4708H122.949L121.415 24.9999H119.402ZM130.267 24.9999V16.8181H132.195V24.9999H130.267ZM131.236 15.6569C130.931 15.6569 130.668 15.5557 130.448 15.3532C130.228 15.1473 130.117 14.9005 130.117 14.6128C130.117 14.3216 130.228 14.0748 130.448 13.8724C130.668 13.6664 130.931 13.5635 131.236 13.5635C131.545 13.5635 131.808 13.6664 132.024 13.8724C132.245 14.0748 132.355 14.3216 132.355 14.6128C132.355 14.9005 132.245 15.1473 132.024 15.3532C131.808 15.5557 131.545 15.6569 131.236 15.6569ZM138.263 16.8181V18.3096H133.56V16.8181H138.263ZM134.721 14.8579H136.649V22.539C136.649 22.7982 136.688 22.9971 136.767 23.1356C136.848 23.2705 136.955 23.3628 137.086 23.4125C137.218 23.4623 137.363 23.4871 137.523 23.4871C137.644 23.4871 137.754 23.4782 137.853 23.4605C137.956 23.4427 138.034 23.4267 138.088 23.4125L138.413 24.92C138.31 24.9555 138.162 24.9946 137.97 25.0372C137.782 25.0798 137.551 25.1047 137.278 25.1118C136.795 25.126 136.36 25.0532 135.973 24.8934C135.586 24.73 135.279 24.4779 135.051 24.137C134.828 23.7961 134.718 23.3699 134.721 22.8586V14.8579ZM141.98 20.2059V24.9999H140.052V14.0908H141.937V18.2084H142.033C142.225 17.7467 142.522 17.3827 142.923 17.1164C143.328 16.8465 143.843 16.7115 144.468 16.7115C145.036 16.7115 145.531 16.8305 145.954 17.0684C146.376 17.3064 146.703 17.6544 146.934 18.1125C147.168 18.5706 147.285 19.1299 147.285 19.7904V24.9999H145.357V20.0887C145.357 19.5383 145.215 19.1103 144.931 18.8049C144.651 18.496 144.256 18.3415 143.749 18.3415C143.408 18.3415 143.102 18.4161 142.832 18.5652C142.566 18.7108 142.356 18.9221 142.204 19.1991C142.055 19.4761 141.98 19.8117 141.98 20.2059ZM154.458 24.9999H152.348L156.189 14.0908H158.629L162.475 24.9999H160.365L157.451 16.328H157.366L154.458 24.9999ZM154.527 20.7226H160.28V22.3099H154.527V20.7226ZM163.826 28.0681V16.8181H165.723V18.1711H165.834C165.934 17.9722 166.074 17.7609 166.255 17.5372C166.436 17.3099 166.681 17.1164 166.99 16.9566C167.299 16.7932 167.693 16.7115 168.173 16.7115C168.805 16.7115 169.375 16.8731 169.883 17.1963C170.394 17.5159 170.799 17.99 171.097 18.6185C171.399 19.2435 171.55 20.0106 171.55 20.9196C171.55 21.8181 171.403 22.5816 171.108 23.2101C170.813 23.8387 170.412 24.3181 169.904 24.6483C169.396 24.9786 168.821 25.1437 168.178 25.1437C167.709 25.1437 167.321 25.0656 167.012 24.9093C166.703 24.7531 166.454 24.5649 166.266 24.3447C166.081 24.121 165.937 23.9097 165.834 23.7108H165.754V28.0681H163.826ZM165.717 20.909C165.717 21.4381 165.792 21.9015 165.941 22.2993C166.094 22.697 166.312 23.0077 166.596 23.2314C166.884 23.4516 167.232 23.5617 167.64 23.5617C168.066 23.5617 168.423 23.4481 168.711 23.2208C168.998 22.99 169.215 22.6757 169.361 22.278C169.51 21.8767 169.584 21.4204 169.584 20.909C169.584 20.4012 169.512 19.9502 169.366 19.556C169.22 19.1618 169.004 18.8529 168.716 18.6292C168.428 18.4054 168.07 18.2936 167.64 18.2936C167.228 18.2936 166.878 18.4019 166.591 18.6185C166.303 18.8351 166.085 19.1387 165.936 19.5294C165.79 19.92 165.717 20.3799 165.717 20.909ZM173.201 28.0681V16.8181H175.098V18.1711H175.209C175.309 17.9722 175.449 17.7609 175.63 17.5372C175.811 17.3099 176.056 17.1164 176.365 16.9566C176.674 16.7932 177.068 16.7115 177.548 16.7115C178.18 16.7115 178.75 16.8731 179.258 17.1963C179.769 17.5159 180.174 17.99 180.472 18.6185C180.774 19.2435 180.925 20.0106 180.925 20.9196C180.925 21.8181 180.778 22.5816 180.483 23.2101C180.188 23.8387 179.787 24.3181 179.279 24.6483C178.771 24.9786 178.196 25.1437 177.553 25.1437C177.084 25.1437 176.696 25.0656 176.387 24.9093C176.078 24.7531 175.829 24.5649 175.641 24.3447C175.456 24.121 175.312 23.9097 175.209 23.7108H175.129V28.0681H173.201ZM175.092 20.909C175.092 21.4381 175.167 21.9015 175.316 22.2993C175.469 22.697 175.687 23.0077 175.971 23.2314C176.259 23.4516 176.607 23.5617 177.015 23.5617C177.441 23.5617 177.798 23.4481 178.086 23.2208C178.373 22.99 178.59 22.6757 178.736 22.278C178.885 21.8767 178.959 21.4204 178.959 20.909C178.959 20.4012 178.887 19.9502 178.741 19.556C178.595 19.1618 178.379 18.8529 178.091 18.6292C177.803 18.4054 177.445 18.2936 177.015 18.2936C176.603 18.2936 176.253 18.4019 175.966 18.6185C175.678 18.8351 175.46 19.1387 175.311 19.5294C175.165 19.92 175.092 20.3799 175.092 20.909ZM184.504 14.0908V24.9999H182.576V14.0908H184.504ZM190.11 25.1597C189.289 25.1597 188.581 24.9892 187.984 24.6483C187.391 24.3039 186.935 23.8174 186.615 23.1888C186.296 22.5567 186.136 21.8128 186.136 20.9569C186.136 20.1153 186.296 19.3767 186.615 18.741C186.938 18.1018 187.389 17.6047 187.968 17.2495C188.547 16.8909 189.227 16.7115 190.008 16.7115C190.513 16.7115 190.988 16.7932 191.436 16.9566C191.887 17.1164 192.285 17.365 192.629 17.7023C192.977 18.0397 193.25 18.4694 193.449 18.9914C193.648 19.5098 193.748 20.1277 193.748 20.8451V21.4363H187.041V20.1366H191.899C191.896 19.7673 191.816 19.4388 191.66 19.1512C191.503 18.86 191.285 18.6309 191.004 18.464C190.727 18.2971 190.404 18.2137 190.035 18.2137C189.641 18.2137 189.295 18.3096 188.996 18.5013C188.698 18.6895 188.465 18.9381 188.298 19.2471C188.135 19.5525 188.052 19.888 188.048 20.2538V21.3884C188.048 21.8642 188.135 22.2726 188.309 22.6135C188.483 22.9509 188.726 23.2101 189.039 23.3912C189.351 23.5688 189.717 23.6576 190.136 23.6576C190.417 23.6576 190.671 23.6185 190.898 23.5404C191.125 23.4587 191.322 23.3397 191.489 23.1835C191.656 23.0272 191.782 22.8337 191.867 22.6029L193.668 22.8053C193.554 23.2811 193.337 23.6966 193.018 24.0517C192.702 24.4033 192.297 24.6767 191.803 24.8721C191.31 25.0638 190.745 25.1597 190.11 25.1597Z" fill="white"/>
</g>
<defs>
<clipPath id="clip0_170_726">
<rect width="230" height="40" fill="white"/>
</clipPath>
</defs>
</svg>
