<svg width="238" height="48" viewBox="0 0 238 48" fill="none" xmlns="http://www.w3.org/2000/svg">
<g clip-path="url(#clip0_102_18)">
<mask id="mask0_102_18" style="mask-type:luminance" maskUnits="userSpaceOnUse" x="0" y="0" width="238" height="48">
<path d="M238 0H0V48H238V0Z" fill="white"/>
</mask>
<g mask="url(#mask0_102_18)">
<g filter="url(#filter0_d_102_18)">
<path d="M214 0H24C12.9543 0 4 8.9543 4 20C4 31.0457 12.9543 40 24 40H214C225.046 40 234 31.0457 234 20C234 8.9543 225.046 0 214 0Z" fill="white"/>
</g>
</g>
<path d="M45.2569 17.5519H44.25V17.5H33V22.5H40.0644C39.0338 25.4106 36.2644 27.5 33 27.5C28.8581 27.5 25.5 24.1419 25.5 20C25.5 15.8581 28.8581 12.5 33 12.5C34.9119 12.5 36.6513 13.2212 37.9756 14.3994L41.5113 10.8637C39.2788 8.78312 36.2925 7.5 33 7.5C26.0969 7.5 20.5 13.0969 20.5 20C20.5 26.9031 26.0969 32.5 33 32.5C39.9031 32.5 45.5 26.9031 45.5 20C45.5 19.1619 45.4138 18.3438 45.2569 17.5519Z" fill="#FBC02D"/>
<path d="M21.9414 14.1819L26.0483 17.1938C27.1595 14.4425 29.8508 12.5 33.0002 12.5C34.912 12.5 36.6514 13.2212 37.9758 14.3994L41.5114 10.8637C39.2789 8.78312 36.2927 7.5 33.0002 7.5C28.1989 7.5 24.0352 10.2106 21.9414 14.1819Z" fill="#E53935"/>
<path d="M33.0002 32.4999C36.2289 32.4999 39.1627 31.2643 41.3808 29.2549L37.5121 25.9812C36.2571 26.9318 34.6971 27.4999 33.0002 27.4999C29.7489 27.4999 26.9883 25.4268 25.9483 22.5337L21.8721 25.6743C23.9408 29.7224 28.1421 32.4999 33.0002 32.4999Z" fill="#4CAF50"/>
<path d="M45.2569 17.5519L45.2469 17.5H44.25H33V22.5H40.0644C39.5694 23.8981 38.67 25.1037 37.51 25.9819L37.5119 25.9806L41.3806 29.2544C41.1069 29.5031 45.5 26.25 45.5 20C45.5 19.1619 45.4138 18.3438 45.2569 17.5519Z" fill="#1565C0"/>
<path d="M69.4929 17.7827C69.4588 17.4389 69.3125 17.1719 69.054 16.9815C68.7955 16.7912 68.4446 16.696 68.0014 16.696C67.7003 16.696 67.446 16.7386 67.2386 16.8239C67.0313 16.9062 66.8722 17.0213 66.7614 17.169C66.6534 17.3168 66.5994 17.4844 66.5994 17.6719C66.5938 17.8281 66.6264 17.9645 66.6974 18.081C66.7713 18.1974 66.8722 18.2983 67 18.3835C67.1278 18.4659 67.2756 18.5384 67.4432 18.6009C67.6108 18.6605 67.7898 18.7116 67.9801 18.7543L68.7642 18.9418C69.1449 19.027 69.4943 19.1406 69.8125 19.2827C70.1307 19.4247 70.4063 19.5994 70.6392 19.8068C70.8722 20.0142 71.0526 20.2585 71.1804 20.5398C71.3111 20.821 71.3778 21.1435 71.3807 21.5071C71.3778 22.0412 71.2415 22.5043 70.9716 22.8963C70.7045 23.2855 70.3182 23.5881 69.8125 23.804C69.3097 24.017 68.7031 24.1236 67.9929 24.1236C67.2884 24.1236 66.6747 24.0156 66.152 23.7997C65.6321 23.5838 65.2259 23.2642 64.9332 22.8409C64.6435 22.4148 64.4915 21.8878 64.4773 21.2599H66.2628C66.2827 21.5526 66.3665 21.7969 66.5142 21.9929C66.6648 22.1861 66.8651 22.3324 67.1151 22.4318C67.3679 22.5284 67.6534 22.5767 67.9716 22.5767C68.2841 22.5767 68.5554 22.5312 68.7855 22.4403C69.0185 22.3494 69.1989 22.223 69.3267 22.0611C69.4545 21.8991 69.5185 21.7131 69.5185 21.5028C69.5185 21.3068 69.4602 21.142 69.3438 21.0085C69.2301 20.875 69.0625 20.7614 68.8409 20.6676C68.6222 20.5739 68.3537 20.4886 68.0355 20.4119L67.0852 20.1733C66.3494 19.9943 65.7685 19.7145 65.3423 19.3338C64.9162 18.9531 64.7045 18.4403 64.7074 17.7955C64.7045 17.267 64.8452 16.8054 65.1293 16.4105C65.4162 16.0156 65.8097 15.7074 66.3097 15.4858C66.8097 15.2642 67.3778 15.1534 68.0142 15.1534C68.6619 15.1534 69.2273 15.2642 69.7102 15.4858C70.196 15.7074 70.5739 16.0156 70.8438 16.4105C71.1136 16.8054 71.2528 17.2628 71.2614 17.7827H69.4929ZM72.5877 24V17.4545H74.4031V24H72.5877ZM73.4996 16.6108C73.2298 16.6108 72.9982 16.5213 72.805 16.3423C72.6147 16.1605 72.5195 15.9432 72.5195 15.6903C72.5195 15.4403 72.6147 15.2259 72.805 15.0469C72.9982 14.8651 73.2298 14.7741 73.4996 14.7741C73.7695 14.7741 73.9996 14.8651 74.19 15.0469C74.3832 15.2259 74.4798 15.4403 74.4798 15.6903C74.4798 15.9432 74.3832 16.1605 74.19 16.3423C73.9996 16.5213 73.7695 16.6108 73.4996 16.6108ZM78.8061 26.5909C78.218 26.5909 77.7138 26.5099 77.2933 26.348C76.8757 26.1889 76.5433 25.9716 76.2962 25.696C76.049 25.4205 75.8885 25.1108 75.8146 24.767L77.4936 24.5412C77.5447 24.6719 77.6257 24.794 77.7365 24.9077C77.8473 25.0213 77.9936 25.1122 78.1754 25.1804C78.3601 25.2514 78.5845 25.2869 78.8487 25.2869C79.2436 25.2869 79.5689 25.1903 79.8246 24.9972C80.0831 24.8068 80.2124 24.4872 80.2124 24.0384V22.8409H80.1357C80.0561 23.0227 79.9368 23.1946 79.7777 23.3565C79.6186 23.5185 79.4141 23.6506 79.1641 23.7528C78.9141 23.8551 78.6158 23.9062 78.2692 23.9062C77.7777 23.9062 77.3303 23.7926 76.9268 23.5653C76.5263 23.3352 76.2067 22.9844 75.968 22.5128C75.7322 22.0384 75.6143 21.4389 75.6143 20.7145C75.6143 19.973 75.7351 19.3537 75.9766 18.8565C76.218 18.3594 76.5391 17.9872 76.9396 17.7401C77.343 17.4929 77.7848 17.3693 78.2649 17.3693C78.6314 17.3693 78.9382 17.4318 79.1854 17.5568C79.4325 17.679 79.6314 17.8324 79.782 18.017C79.9354 18.1989 80.0533 18.3778 80.1357 18.554H80.2038V17.4545H82.0064V24.0639C82.0064 24.6207 81.87 25.0866 81.5973 25.4616C81.3246 25.8366 80.9467 26.1179 80.4638 26.3054C79.9837 26.4957 79.4311 26.5909 78.8061 26.5909ZM78.8445 22.5426C79.1371 22.5426 79.3842 22.4702 79.5859 22.3253C79.7905 22.1776 79.9467 21.9673 80.0547 21.6946C80.1655 21.419 80.2209 21.0895 80.2209 20.706C80.2209 20.3224 80.1669 19.9901 80.0589 19.7088C79.951 19.4247 79.7947 19.2045 79.5902 19.0483C79.3857 18.892 79.1371 18.8139 78.8445 18.8139C78.5462 18.8139 78.2947 18.8949 78.0902 19.0568C77.8857 19.2159 77.7308 19.4375 77.6257 19.7216C77.5206 20.0057 77.468 20.3338 77.468 20.706C77.468 21.0838 77.5206 21.4105 77.6257 21.6861C77.7337 21.9588 77.8885 22.1705 78.0902 22.321C78.2947 22.4687 78.5462 22.5426 78.8445 22.5426ZM85.2663 20.2159V24H83.451V17.4545H85.1811V18.6094H85.2578C85.4027 18.2287 85.6456 17.9276 85.9865 17.706C86.3274 17.4815 86.7408 17.3693 87.2266 17.3693C87.6811 17.3693 88.0774 17.4688 88.4155 17.6676C88.7536 17.8665 89.0163 18.1506 89.2038 18.5199C89.3913 18.8864 89.4851 19.3239 89.4851 19.8324V24H87.6697V20.1562C87.6726 19.7557 87.5703 19.4432 87.3629 19.2188C87.1555 18.9915 86.87 18.8778 86.5064 18.8778C86.2621 18.8778 86.0462 18.9304 85.8587 19.0355C85.674 19.1406 85.5291 19.294 85.424 19.4957C85.3217 19.6946 85.2692 19.9347 85.2663 20.2159ZM97.8906 21.2131V17.4545H99.706V24H97.9631V22.8111H97.8949C97.7472 23.1946 97.5014 23.5028 97.1577 23.7358C96.8168 23.9687 96.4006 24.0852 95.9091 24.0852C95.4716 24.0852 95.0866 23.9858 94.7543 23.7869C94.4219 23.5881 94.1619 23.3054 93.9744 22.9389C93.7898 22.5724 93.696 22.1335 93.6932 21.6222V17.4545H95.5085V21.2983C95.5114 21.6847 95.6151 21.9901 95.8196 22.2145C96.0241 22.4389 96.2983 22.5511 96.642 22.5511C96.8608 22.5511 97.0653 22.5014 97.2557 22.402C97.446 22.2997 97.5994 22.1491 97.7159 21.9503C97.8352 21.7514 97.8935 21.5057 97.8906 21.2131ZM101.158 26.4545V17.4545H102.948V18.554H103.029C103.108 18.3778 103.223 18.1989 103.374 18.017C103.527 17.8324 103.726 17.679 103.971 17.5568C104.218 17.4318 104.525 17.3693 104.891 17.3693C105.368 17.3693 105.809 17.4943 106.212 17.7443C106.615 17.9915 106.938 18.3651 107.179 18.8651C107.421 19.3622 107.542 19.9858 107.542 20.7358C107.542 21.4659 107.424 22.0824 107.188 22.5852C106.955 23.0852 106.637 23.4645 106.233 23.723C105.833 23.9787 105.384 24.1065 104.887 24.1065C104.534 24.1065 104.235 24.0483 103.988 23.9318C103.743 23.8153 103.543 23.669 103.387 23.4929C103.23 23.3139 103.111 23.1335 103.029 22.9517H102.973V26.4545H101.158ZM102.935 20.7273C102.935 21.1165 102.989 21.456 103.097 21.7457C103.205 22.0355 103.361 22.2614 103.566 22.4233C103.77 22.5824 104.019 22.6619 104.311 22.6619C104.607 22.6619 104.857 22.581 105.061 22.419C105.266 22.2543 105.421 22.027 105.526 21.7372C105.634 21.4446 105.688 21.108 105.688 20.7273C105.688 20.3494 105.635 20.017 105.53 19.7301C105.425 19.4432 105.27 19.2187 105.066 19.0568C104.861 18.8949 104.61 18.8139 104.311 18.8139C104.016 18.8139 103.766 18.892 103.561 19.0483C103.36 19.2045 103.205 19.4261 103.097 19.7131C102.989 20 102.935 20.3381 102.935 20.7273ZM112.82 24L111.039 17.4545H112.876L113.89 21.8523H113.95L115.006 17.4545H116.809L117.883 21.8267H117.938L118.935 17.4545H120.768L118.991 24H117.069L115.944 19.8835H115.863L114.738 24H112.82ZM121.736 24V17.4545H123.551V24H121.736ZM122.648 16.6108C122.378 16.6108 122.147 16.5213 121.953 16.3423C121.763 16.1605 121.668 15.9432 121.668 15.6903C121.668 15.4403 121.763 15.2259 121.953 15.0469C122.147 14.8651 122.378 14.7741 122.648 14.7741C122.918 14.7741 123.148 14.8651 123.338 15.0469C123.532 15.2259 123.628 15.4403 123.628 15.6903C123.628 15.9432 123.532 16.1605 123.338 16.3423C123.148 16.5213 122.918 16.6108 122.648 16.6108ZM128.487 17.4545V18.8182H124.545V17.4545H128.487ZM125.44 15.8864H127.256V21.9886C127.256 22.1562 127.281 22.2869 127.332 22.3807C127.384 22.4716 127.455 22.5355 127.545 22.5724C127.639 22.6094 127.747 22.6278 127.869 22.6278C127.955 22.6278 128.04 22.6207 128.125 22.6065C128.21 22.5895 128.276 22.5767 128.321 22.5682L128.607 23.919C128.516 23.9474 128.388 23.9801 128.223 24.017C128.058 24.0568 127.858 24.081 127.622 24.0895C127.185 24.1065 126.801 24.0483 126.472 23.9148C126.145 23.7812 125.891 23.5739 125.709 23.2926C125.527 23.0114 125.438 22.6562 125.44 22.2273V15.8864ZM131.626 20.2159V24H129.81V15.2727H131.575V18.6094H131.651C131.799 18.223 132.038 17.9205 132.367 17.7017C132.697 17.4801 133.11 17.3693 133.607 17.3693C134.062 17.3693 134.458 17.4688 134.796 17.6676C135.137 17.8636 135.401 18.1463 135.589 18.5156C135.779 18.8821 135.873 19.321 135.87 19.8324V24H134.055V20.1562C134.058 19.7528 133.955 19.4389 133.748 19.2145C133.543 18.9901 133.256 18.8778 132.887 18.8778C132.64 18.8778 132.421 18.9304 132.231 19.0355C132.043 19.1406 131.896 19.294 131.788 19.4957C131.683 19.6946 131.629 19.9347 131.626 20.2159ZM145.897 18.0938C145.837 17.8864 145.754 17.7031 145.646 17.544C145.538 17.3821 145.406 17.2457 145.249 17.1349C145.096 17.0213 144.92 16.9347 144.721 16.875C144.525 16.8153 144.308 16.7855 144.069 16.7855C143.623 16.7855 143.231 16.8963 142.893 17.1179C142.558 17.3395 142.296 17.6619 142.109 18.0852C141.921 18.5057 141.827 19.0199 141.827 19.6278C141.827 20.2358 141.92 20.7528 142.104 21.179C142.289 21.6051 142.55 21.9304 142.888 22.1548C143.227 22.3764 143.626 22.4872 144.086 22.4872C144.504 22.4872 144.86 22.4134 145.156 22.2656C145.454 22.1151 145.681 21.9034 145.837 21.6307C145.996 21.358 146.076 21.0355 146.076 20.6634L146.451 20.7188H144.201V19.3295H147.853V20.429C147.853 21.196 147.691 21.8551 147.367 22.4062C147.043 22.9545 146.597 23.3778 146.029 23.6761C145.461 23.9716 144.81 24.1193 144.077 24.1193C143.259 24.1193 142.54 23.9389 141.921 23.5781C141.302 23.2145 140.819 22.6989 140.472 22.0312C140.129 21.3608 139.957 20.5653 139.957 19.6449C139.957 18.9375 140.059 18.3068 140.263 17.7528C140.471 17.196 140.761 16.7244 141.133 16.3381C141.505 15.9517 141.938 15.6577 142.433 15.456C142.927 15.2543 143.462 15.1534 144.039 15.1534C144.533 15.1534 144.994 15.2259 145.42 15.3707C145.846 15.5128 146.224 15.7145 146.553 15.9759C146.886 16.2372 147.157 16.5483 147.367 16.9091C147.577 17.267 147.712 17.6619 147.772 18.0938H145.897ZM152.162 24.1278C151.5 24.1278 150.928 23.9872 150.445 23.706C149.965 23.4219 149.594 23.027 149.333 22.5213C149.071 22.0128 148.941 21.4233 148.941 20.7528C148.941 20.0767 149.071 19.4858 149.333 18.9801C149.594 18.4716 149.965 18.0767 150.445 17.7955C150.928 17.5114 151.5 17.3693 152.162 17.3693C152.824 17.3693 153.395 17.5114 153.875 17.7955C154.358 18.0767 154.73 18.4716 154.992 18.9801C155.253 19.4858 155.384 20.0767 155.384 20.7528C155.384 21.4233 155.253 22.0128 154.992 22.5213C154.73 23.027 154.358 23.4219 153.875 23.706C153.395 23.9872 152.824 24.1278 152.162 24.1278ZM152.171 22.7216C152.472 22.7216 152.723 22.6364 152.925 22.4659C153.127 22.2926 153.279 22.0568 153.381 21.7585C153.486 21.4602 153.539 21.1207 153.539 20.7401C153.539 20.3594 153.486 20.0199 153.381 19.7216C153.279 19.4233 153.127 19.1875 152.925 19.0142C152.723 18.8409 152.472 18.7543 152.171 18.7543C151.867 18.7543 151.611 18.8409 151.404 19.0142C151.199 19.1875 151.044 19.4233 150.939 19.7216C150.837 20.0199 150.786 20.3594 150.786 20.7401C150.786 21.1207 150.837 21.4602 150.939 21.7585C151.044 22.0568 151.199 22.2926 151.404 22.4659C151.611 22.6364 151.867 22.7216 152.171 22.7216ZM159.522 24.1278C158.86 24.1278 158.287 23.9872 157.804 23.706C157.324 23.4219 156.953 23.027 156.692 22.5213C156.431 22.0128 156.3 21.4233 156.3 20.7528C156.3 20.0767 156.431 19.4858 156.692 18.9801C156.953 18.4716 157.324 18.0767 157.804 17.7955C158.287 17.5114 158.86 17.3693 159.522 17.3693C160.184 17.3693 160.755 17.5114 161.235 17.7955C161.718 18.0767 162.09 18.4716 162.351 18.9801C162.613 19.4858 162.743 20.0767 162.743 20.7528C162.743 21.4233 162.613 22.0128 162.351 22.5213C162.09 23.027 161.718 23.4219 161.235 23.706C160.755 23.9872 160.184 24.1278 159.522 24.1278ZM159.53 22.7216C159.831 22.7216 160.083 22.6364 160.284 22.4659C160.486 22.2926 160.638 22.0568 160.74 21.7585C160.846 21.4602 160.898 21.1207 160.898 20.7401C160.898 20.3594 160.846 20.0199 160.74 19.7216C160.638 19.4233 160.486 19.1875 160.284 19.0142C160.083 18.8409 159.831 18.7543 159.53 18.7543C159.226 18.7543 158.971 18.8409 158.763 19.0142C158.559 19.1875 158.404 19.4233 158.299 19.7216C158.196 20.0199 158.145 20.3594 158.145 20.7401C158.145 21.1207 158.196 21.4602 158.299 21.7585C158.404 22.0568 158.559 22.2926 158.763 22.4659C158.971 22.6364 159.226 22.7216 159.53 22.7216ZM166.873 26.5909C166.284 26.5909 165.78 26.5099 165.36 26.348C164.942 26.1889 164.61 25.9716 164.363 25.696C164.115 25.4205 163.955 25.1108 163.881 24.767L165.56 24.5412C165.611 24.6719 165.692 24.794 165.803 24.9077C165.914 25.0213 166.06 25.1122 166.242 25.1804C166.426 25.2514 166.651 25.2869 166.915 25.2869C167.31 25.2869 167.635 25.1903 167.891 24.9972C168.15 24.8068 168.279 24.4872 168.279 24.0384V22.8409H168.202C168.123 23.0227 168.003 23.1946 167.844 23.3565C167.685 23.5185 167.48 23.6506 167.23 23.7528C166.98 23.8551 166.682 23.9062 166.336 23.9062C165.844 23.9062 165.397 23.7926 164.993 23.5653C164.593 23.3352 164.273 22.9844 164.034 22.5128C163.799 22.0384 163.681 21.4389 163.681 20.7145C163.681 19.973 163.801 19.3537 164.043 18.8565C164.284 18.3594 164.605 17.9872 165.006 17.7401C165.409 17.4929 165.851 17.3693 166.331 17.3693C166.698 17.3693 167.005 17.4318 167.252 17.5568C167.499 17.679 167.698 17.8324 167.848 18.017C168.002 18.1989 168.12 18.3778 168.202 18.554H168.27V17.4545H170.073V24.0639C170.073 24.6207 169.936 25.0866 169.664 25.4616C169.391 25.8366 169.013 26.1179 168.53 26.3054C168.05 26.4957 167.498 26.5909 166.873 26.5909ZM166.911 22.5426C167.203 22.5426 167.451 22.4702 167.652 22.3253C167.857 22.1776 168.013 21.9673 168.121 21.6946C168.232 21.419 168.287 21.0895 168.287 20.706C168.287 20.3224 168.233 19.9901 168.125 19.7088C168.017 19.4247 167.861 19.2045 167.657 19.0483C167.452 18.892 167.203 18.8139 166.911 18.8139C166.613 18.8139 166.361 18.8949 166.157 19.0568C165.952 19.2159 165.797 19.4375 165.692 19.7216C165.587 20.0057 165.534 20.3338 165.534 20.706C165.534 21.0838 165.587 21.4105 165.692 21.6861C165.8 21.9588 165.955 22.1705 166.157 22.321C166.361 22.4687 166.613 22.5426 166.911 22.5426ZM173.333 15.2727V24H171.517V15.2727H173.333ZM177.77 24.1278C177.097 24.1278 176.517 23.9915 176.031 23.7188C175.548 23.4432 175.176 23.054 174.915 22.5511C174.653 22.0455 174.523 21.4474 174.523 20.7571C174.523 20.0838 174.653 19.4929 174.915 18.9844C175.176 18.4759 175.544 18.0795 176.018 17.7955C176.496 17.5114 177.055 17.3693 177.697 17.3693C178.129 17.3693 178.531 17.4389 178.903 17.5781C179.278 17.7145 179.605 17.9205 179.884 18.196C180.165 18.4716 180.384 18.8182 180.54 19.2358C180.696 19.6506 180.774 20.1364 180.774 20.6932V21.1918H175.247V20.0668H179.065C179.065 19.8054 179.009 19.5739 178.895 19.3722C178.781 19.1705 178.624 19.0128 178.422 18.8991C178.223 18.7827 177.991 18.7244 177.727 18.7244C177.452 18.7244 177.207 18.7884 176.994 18.9162C176.784 19.0412 176.619 19.2102 176.5 19.4233C176.381 19.6335 176.32 19.8679 176.317 20.1264V21.196C176.317 21.5199 176.376 21.7997 176.496 22.0355C176.618 22.2713 176.79 22.4531 177.011 22.581C177.233 22.7088 177.496 22.7727 177.8 22.7727C178.001 22.7727 178.186 22.7443 178.354 22.6875C178.521 22.6307 178.665 22.5455 178.784 22.4318C178.903 22.3182 178.994 22.179 179.057 22.0142L180.736 22.125C180.651 22.5284 180.476 22.8807 180.212 23.1818C179.95 23.4801 179.612 23.7131 179.197 23.8807C178.786 24.0455 178.31 24.1278 177.77 24.1278Z" fill="black"/>
</g>
<defs>
<filter id="filter0_d_102_18" x="0" y="0" width="238" height="48" filterUnits="userSpaceOnUse" color-interpolation-filters="sRGB">
<feFlood flood-opacity="0" result="BackgroundImageFix"/>
<feColorMatrix in="SourceAlpha" type="matrix" values="0 0 0 0 0 0 0 0 0 0 0 0 0 0 0 0 0 0 127 0" result="hardAlpha"/>
<feOffset dy="4"/>
<feGaussianBlur stdDeviation="2"/>
<feComposite in2="hardAlpha" operator="out"/>
<feColorMatrix type="matrix" values="0 0 0 0 0 0 0 0 0 0 0 0 0 0 0 0 0 0 0.25 0"/>
<feBlend mode="normal" in2="BackgroundImageFix" result="effect1_dropShadow_102_18"/>
<feBlend mode="normal" in="SourceGraphic" in2="effect1_dropShadow_102_18" result="shape"/>
</filter>
<clipPath id="clip0_102_18">
<rect width="238" height="48" fill="white"/>
</clipPath>
</defs>
</svg>
