<svg width="230" height="40" viewBox="0 0 230 40" fill="none" xmlns="http://www.w3.org/2000/svg">
<g clip-path="url(#clip0_170_734)">
<path d="M210 0H20C8.9543 0 0 8.9543 0 20C0 31.0457 8.9543 40 20 40H210C221.046 40 230 31.0457 230 20C230 8.9543 221.046 0 210 0Z" fill="#FC470E"/>
<path d="M95.5518 25.9999V15.0908H97.528V24.3433H102.332V25.9999H95.5518ZM107.531 26.1597C106.732 26.1597 106.04 25.9839 105.454 25.6324C104.868 25.2808 104.413 24.789 104.09 24.1569C103.771 23.5248 103.611 22.7861 103.611 21.941C103.611 21.0958 103.771 20.3554 104.09 19.7197C104.413 19.0841 104.868 18.5905 105.454 18.2389C106.04 17.8873 106.732 17.7115 107.531 17.7115C108.33 17.7115 109.023 17.8873 109.609 18.2389C110.195 18.5905 110.647 19.0841 110.967 19.7197C111.29 20.3554 111.452 21.0958 111.452 21.941C111.452 22.7861 111.29 23.5248 110.967 24.1569C110.647 24.789 110.195 25.2808 109.609 25.6324C109.023 25.9839 108.33 26.1597 107.531 26.1597ZM107.542 24.615C107.975 24.615 108.337 24.496 108.629 24.2581C108.92 24.0166 109.136 23.6934 109.278 23.2886C109.424 22.8838 109.497 22.4328 109.497 21.9356C109.497 21.4349 109.424 20.9821 109.278 20.5773C109.136 20.1689 108.92 19.844 108.629 19.6025C108.337 19.3611 107.975 19.2403 107.542 19.2403C107.098 19.2403 106.729 19.3611 106.434 19.6025C106.143 19.844 105.924 20.1689 105.779 20.5773C105.637 20.9821 105.566 21.4349 105.566 21.9356C105.566 22.4328 105.637 22.8838 105.779 23.2886C105.924 23.6934 106.143 24.0166 106.434 24.2581C106.729 24.496 107.098 24.615 107.542 24.615ZM116.647 29.2385C115.954 29.2385 115.359 29.1444 114.862 28.9562C114.365 28.7716 113.966 28.523 113.664 28.2105C113.362 27.898 113.152 27.5517 113.035 27.1718L114.772 26.751C114.85 26.9108 114.963 27.0688 115.113 27.225C115.262 27.3848 115.462 27.5162 115.714 27.6192C115.97 27.7258 116.292 27.779 116.679 27.779C117.225 27.779 117.678 27.6459 118.037 27.3795C118.396 27.1167 118.575 26.6835 118.575 26.0798V24.5297H118.479C118.38 24.7286 118.234 24.9328 118.042 25.1423C117.854 25.3518 117.604 25.5276 117.291 25.6696C116.982 25.8117 116.593 25.8827 116.125 25.8827C115.496 25.8827 114.926 25.7353 114.415 25.4406C113.907 25.1423 113.502 24.6984 113.2 24.1089C112.902 23.5159 112.753 22.7737 112.753 21.8824C112.753 20.9839 112.902 20.2258 113.2 19.6079C113.502 18.9864 113.909 18.5159 114.42 18.1963C114.931 17.8731 115.501 17.7115 116.13 17.7115C116.609 17.7115 117.004 17.7932 117.312 17.9566C117.625 18.1164 117.874 18.3099 118.058 18.5372C118.243 18.7609 118.383 18.9722 118.479 19.1711H118.586V17.8181H120.487V26.1331C120.487 26.8326 120.32 27.4115 119.987 27.8696C119.653 28.3277 119.196 28.6704 118.618 28.8976C118.039 29.1249 117.382 29.2385 116.647 29.2385ZM116.663 24.3699C117.071 24.3699 117.419 24.2705 117.707 24.0716C117.994 23.8728 118.213 23.5869 118.362 23.214C118.511 22.8412 118.586 22.3937 118.586 21.8717C118.586 21.3568 118.511 20.9058 118.362 20.5187C118.216 20.1316 118 19.8316 117.712 19.6185C117.428 19.4019 117.078 19.2936 116.663 19.2936C116.233 19.2936 115.874 19.4054 115.587 19.6292C115.299 19.8529 115.082 20.1601 114.937 20.5507C114.791 20.9378 114.718 21.3781 114.718 21.8717C114.718 22.3724 114.791 22.811 114.937 23.1874C115.086 23.5603 115.304 23.8515 115.592 24.061C115.883 24.2669 116.24 24.3699 116.663 24.3699ZM122.463 25.9999V17.8181H124.392V25.9999H122.463ZM123.433 16.6569C123.127 16.6569 122.865 16.5557 122.645 16.3532C122.424 16.1473 122.314 15.9005 122.314 15.6128C122.314 15.3216 122.424 15.0748 122.645 14.8724C122.865 14.6664 123.127 14.5635 123.433 14.5635C123.742 14.5635 124.005 14.6664 124.221 14.8724C124.441 15.0748 124.551 15.3216 124.551 15.6128C124.551 15.9005 124.441 16.1473 124.221 16.3532C124.005 16.5557 123.742 16.6569 123.433 16.6569ZM128.303 21.2059V25.9999H126.375V17.8181H128.218V19.2084H128.313C128.502 18.7503 128.802 18.3863 129.214 18.1164C129.629 17.8465 130.142 17.7115 130.753 17.7115C131.318 17.7115 131.81 17.8323 132.229 18.0738C132.651 18.3152 132.978 18.665 133.209 19.1231C133.443 19.5812 133.559 20.137 133.555 20.7904V25.9999H131.627V21.0887C131.627 20.5418 131.485 20.1139 131.201 19.8049C130.92 19.496 130.531 19.3415 130.034 19.3415C129.697 19.3415 129.397 19.4161 129.134 19.5652C128.875 19.7108 128.67 19.9221 128.521 20.1991C128.376 20.4761 128.303 20.8117 128.303 21.2059Z" fill="black"/>
</g>
<defs>
<clipPath id="clip0_170_734">
<rect width="230" height="40" fill="white"/>
</clipPath>
</defs>
</svg>
