<svg width="230" height="40" viewBox="0 0 230 40" fill="none" xmlns="http://www.w3.org/2000/svg">
<g clip-path="url(#clip0_170_734)">
<path d="M210 0H20C8.9543 0 0 8.9543 0 20C0 31.0457 8.9543 40 20 40H210C221.046 40 230 31.0457 230 20C230 8.9543 221.046 0 210 0Z" fill="#FC470E"/>
<path d="M95.5518 26.0001V15.091H97.528V24.3435H102.332V26.0001H95.5518ZM107.531 26.1599C106.732 26.1599 106.04 25.9841 105.454 25.6326C104.868 25.281 104.413 24.7892 104.09 24.1571C103.771 23.525 103.611 22.7863 103.611 21.9412C103.611 21.096 103.771 20.3556 104.09 19.7199C104.413 19.0843 104.868 18.5907 105.454 18.2391C106.04 17.8875 106.732 17.7117 107.531 17.7117C108.33 17.7117 109.023 17.8875 109.609 18.2391C110.195 18.5907 110.647 19.0843 110.967 19.7199C111.29 20.3556 111.452 21.096 111.452 21.9412C111.452 22.7863 111.29 23.525 110.967 24.1571C110.647 24.7892 110.195 25.281 109.609 25.6326C109.023 25.9841 108.33 26.1599 107.531 26.1599ZM107.542 24.6152C107.975 24.6152 108.337 24.4962 108.629 24.2583C108.92 24.0168 109.136 23.6936 109.278 23.2888C109.424 22.884 109.497 22.433 109.497 21.9358C109.497 21.4351 109.424 20.9823 109.278 20.5775C109.136 20.1691 108.92 19.8442 108.629 19.6027C108.337 19.3613 107.975 19.2405 107.542 19.2405C107.098 19.2405 106.729 19.3613 106.434 19.6027C106.143 19.8442 105.924 20.1691 105.779 20.5775C105.637 20.9823 105.566 21.4351 105.566 21.9358C105.566 22.433 105.637 22.884 105.779 23.2888C105.924 23.6936 106.143 24.0168 106.434 24.2583C106.729 24.4962 107.098 24.6152 107.542 24.6152ZM116.647 29.2387C115.954 29.2387 115.359 29.1446 114.862 28.9564C114.365 28.7718 113.966 28.5232 113.664 28.2107C113.362 27.8982 113.152 27.5519 113.035 27.172L114.772 26.7512C114.85 26.911 114.963 27.069 115.113 27.2252C115.262 27.385 115.462 27.5164 115.714 27.6194C115.97 27.726 116.292 27.7792 116.679 27.7792C117.225 27.7792 117.678 27.6461 118.037 27.3797C118.396 27.1169 118.575 26.6837 118.575 26.08V24.5299H118.479C118.38 24.7288 118.234 24.933 118.042 25.1425C117.854 25.352 117.604 25.5278 117.291 25.6698C116.982 25.8119 116.593 25.8829 116.125 25.8829C115.496 25.8829 114.926 25.7355 114.415 25.4408C113.907 25.1425 113.502 24.6986 113.2 24.1091C112.902 23.5161 112.753 22.7739 112.753 21.8826C112.753 20.9841 112.902 20.226 113.2 19.6081C113.502 18.9866 113.909 18.5161 114.42 18.1965C114.931 17.8733 115.501 17.7117 116.13 17.7117C116.609 17.7117 117.004 17.7934 117.312 17.9568C117.625 18.1166 117.874 18.3101 118.058 18.5374C118.243 18.7611 118.383 18.9724 118.479 19.1713H118.586V17.8183H120.487V26.1333C120.487 26.8328 120.32 27.4117 119.987 27.8698C119.653 28.3279 119.196 28.6706 118.618 28.8978C118.039 29.1251 117.382 29.2387 116.647 29.2387ZM116.663 24.3701C117.071 24.3701 117.419 24.2707 117.707 24.0718C117.994 23.873 118.213 23.5871 118.362 23.2142C118.511 22.8414 118.586 22.3939 118.586 21.8719C118.586 21.357 118.511 20.906 118.362 20.5189C118.216 20.1318 118 19.8318 117.712 19.6187C117.428 19.4021 117.078 19.2938 116.663 19.2938C116.233 19.2938 115.874 19.4056 115.587 19.6294C115.299 19.8531 115.082 20.1603 114.937 20.5509C114.791 20.938 114.718 21.3783 114.718 21.8719C114.718 22.3726 114.791 22.8112 114.937 23.1876C115.086 23.5605 115.304 23.8517 115.592 24.0612C115.883 24.2671 116.24 24.3701 116.663 24.3701ZM122.463 26.0001V17.8183H124.392V26.0001H122.463ZM123.433 16.6571C123.127 16.6571 122.865 16.5559 122.645 16.3534C122.424 16.1475 122.314 15.9007 122.314 15.613C122.314 15.3218 122.424 15.075 122.645 14.8726C122.865 14.6666 123.127 14.5637 123.433 14.5637C123.742 14.5637 124.005 14.6666 124.221 14.8726C124.441 15.075 124.551 15.3218 124.551 15.613C124.551 15.9007 124.441 16.1475 124.221 16.3534C124.005 16.5559 123.742 16.6571 123.433 16.6571ZM128.303 21.2061V26.0001H126.375V17.8183H128.218V19.2086H128.313C128.502 18.7505 128.802 18.3865 129.214 18.1166C129.629 17.8467 130.142 17.7117 130.753 17.7117C131.318 17.7117 131.81 17.8325 132.229 18.074C132.651 18.3154 132.978 18.6652 133.209 19.1233C133.443 19.5814 133.559 20.1372 133.555 20.7906V26.0001H131.627V21.0889C131.627 20.542 131.485 20.1141 131.201 19.8051C130.92 19.4962 130.531 19.3417 130.034 19.3417C129.697 19.3417 129.397 19.4163 129.134 19.5654C128.875 19.711 128.67 19.9223 128.521 20.1993C128.376 20.4763 128.303 20.8119 128.303 21.2061Z" fill="#FFFBFB"/>
</g>
<defs>
<clipPath id="clip0_170_734">
<rect width="230" height="40" fill="white"/>
</clipPath>
</defs>
</svg>
