<svg width="230" height="40" viewBox="0 0 230 40" fill="none" xmlns="http://www.w3.org/2000/svg">
<g clip-path="url(#clip0_503_1143)">
<path d="M210 0H20C8.9543 0 0 8.9543 0 20C0 31.0457 8.9543 40 20 40H210C221.046 40 230 31.0457 230 20C230 8.9543 221.046 0 210 0Z" fill="#FC470E"/>
<path d="M103.769 17.7103C103.724 17.252 103.529 16.8959 103.184 16.6421C102.839 16.3884 102.371 16.2615 101.781 16.2615C101.379 16.2615 101.04 16.3183 100.763 16.4319C100.487 16.5418 100.275 16.6952 100.127 16.8921C99.983 17.0891 99.911 17.3126 99.911 17.5626C99.9034 17.7709 99.947 17.9528 100.042 18.1081C100.14 18.2634 100.275 18.3978 100.445 18.5115C100.616 18.6213 100.813 18.7179 101.036 18.8012C101.26 18.8808 101.498 18.949 101.752 19.0058L102.798 19.2558C103.305 19.3694 103.771 19.5209 104.195 19.7103C104.62 19.8997 104.987 20.1327 105.298 20.4092C105.608 20.6857 105.849 21.0115 106.019 21.3865C106.193 21.7615 106.282 22.1914 106.286 22.6762C106.282 23.3884 106.101 24.0058 105.741 24.5285C105.385 25.0474 104.87 25.4509 104.195 25.7387C103.525 26.0228 102.716 26.1649 101.769 26.1649C100.83 26.1649 100.012 26.0209 99.3144 25.7331C98.6212 25.4452 98.0796 25.019 97.6894 24.4546C97.3031 23.8865 97.1004 23.1838 97.0815 22.3467H99.4622C99.4887 22.7368 99.6004 23.0626 99.7974 23.324C99.9981 23.5815 100.265 23.7766 100.599 23.9092C100.936 24.038 101.317 24.1024 101.741 24.1024C102.157 24.1024 102.519 24.0418 102.826 23.9206C103.137 23.7993 103.377 23.6308 103.548 23.4149C103.718 23.199 103.803 22.9509 103.803 22.6706C103.803 22.4092 103.726 22.1895 103.57 22.0115C103.419 21.8334 103.195 21.6819 102.9 21.5569C102.608 21.4319 102.25 21.3183 101.826 21.216L100.559 20.8978C99.5777 20.6592 98.8031 20.2861 98.2349 19.7785C97.6667 19.2709 97.3845 18.5872 97.3883 17.7274C97.3845 17.0228 97.572 16.4073 97.9508 15.8808C98.3334 15.3543 98.858 14.9433 99.5247 14.6478C100.192 14.3524 100.949 14.2046 101.798 14.2046C102.661 14.2046 103.415 14.3524 104.059 14.6478C104.707 14.9433 105.21 15.3543 105.57 15.8808C105.93 16.4073 106.116 17.0171 106.127 17.7103H103.769ZM110.384 26.1649C109.827 26.1649 109.331 26.0683 108.896 25.8751C108.46 25.6781 108.115 25.3884 107.862 25.0058C107.612 24.6194 107.487 24.1384 107.487 23.5626C107.487 23.0778 107.576 22.6706 107.754 22.341C107.932 22.0115 108.174 21.7463 108.481 21.5456C108.788 21.3448 109.136 21.1933 109.526 21.091C109.92 20.9887 110.333 20.9168 110.765 20.8751C111.272 20.8221 111.682 20.7728 111.992 20.7274C112.303 20.6781 112.528 20.6062 112.668 20.5115C112.808 20.4168 112.879 20.2766 112.879 20.091V20.0569C112.879 19.6971 112.765 19.4187 112.538 19.2217C112.314 19.0247 111.996 18.9262 111.583 18.9262C111.147 18.9262 110.801 19.0228 110.543 19.216C110.286 19.4054 110.115 19.644 110.032 19.9319L107.793 19.7501C107.907 19.2198 108.13 18.7615 108.464 18.3751C108.797 17.9849 109.227 17.6857 109.754 17.4774C110.284 17.2653 110.897 17.1592 111.594 17.1592C112.079 17.1592 112.543 17.216 112.987 17.3296C113.433 17.4433 113.829 17.6194 114.174 17.8581C114.522 18.0967 114.797 18.4035 114.998 18.7785C115.199 19.1497 115.299 19.5948 115.299 20.1137V26.0001H113.004V24.7899H112.935C112.795 25.0626 112.608 25.3031 112.373 25.5115C112.138 25.716 111.856 25.877 111.526 25.9944C111.197 26.1081 110.816 26.1649 110.384 26.1649ZM111.077 24.4944C111.433 24.4944 111.748 24.4243 112.021 24.2842C112.293 24.1403 112.507 23.9471 112.663 23.7046C112.818 23.4622 112.896 23.1876 112.896 22.8808V21.9546C112.82 22.0039 112.716 22.0493 112.583 22.091C112.454 22.1289 112.308 22.1649 112.146 22.199C111.983 22.2293 111.82 22.2577 111.657 22.2842C111.494 22.3069 111.346 22.3278 111.214 22.3467C110.93 22.3884 110.682 22.4546 110.469 22.5456C110.257 22.6365 110.093 22.7596 109.975 22.9149C109.858 23.0664 109.799 23.2558 109.799 23.4831C109.799 23.8126 109.918 24.0645 110.157 24.2387C110.399 24.4092 110.706 24.4944 111.077 24.4944ZM125.001 17.2728L121.95 26.0001H119.222L116.171 17.2728H118.728L120.54 23.5171H120.631L122.438 17.2728H125.001ZM129.935 26.1706C129.038 26.1706 128.265 25.9887 127.617 25.6251C126.973 25.2577 126.477 24.7387 126.129 24.0683C125.78 23.394 125.606 22.5967 125.606 21.6762C125.606 20.7785 125.78 19.9906 126.129 19.3126C126.477 18.6346 126.968 18.1062 127.6 17.7274C128.237 17.3486 128.983 17.1592 129.839 17.1592C130.415 17.1592 130.951 17.252 131.447 17.4376C131.947 17.6194 132.382 17.894 132.754 18.2615C133.129 18.6289 133.42 19.091 133.629 19.6478C133.837 20.2009 133.941 20.8486 133.941 21.591V22.2558H126.572V20.7558H131.663C131.663 20.4073 131.587 20.0986 131.435 19.8296C131.284 19.5607 131.074 19.3505 130.805 19.199C130.54 19.0437 130.231 18.966 129.879 18.966C129.511 18.966 129.185 19.0512 128.901 19.2217C128.621 19.3884 128.401 19.6137 128.242 19.8978C128.083 20.1781 128.002 20.4906 127.998 20.8353V22.2615C127.998 22.6933 128.077 23.0664 128.237 23.3808C128.399 23.6952 128.629 23.9376 128.924 24.1081C129.219 24.2785 129.57 24.3637 129.975 24.3637C130.244 24.3637 130.49 24.3259 130.714 24.2501C130.937 24.1743 131.129 24.0607 131.288 23.9092C131.447 23.7577 131.568 23.5721 131.651 23.3524L133.89 23.5001C133.776 24.038 133.543 24.5077 133.191 24.9092C132.843 25.3069 132.392 25.6175 131.839 25.841C131.29 26.0607 130.655 26.1706 129.935 26.1706Z" fill="white"/>
</g>
<defs>
<clipPath id="clip0_503_1143">
<rect width="230" height="40" fill="white"/>
</clipPath>
</defs>
</svg>
