<svg width="230" height="40" viewBox="0 0 230 40" fill="none" xmlns="http://www.w3.org/2000/svg">
<g clip-path="url(#clip0_170_723)">
<path d="M210 0H20C8.9543 0 0 8.9543 0 20C0 31.0457 8.9543 40 20 40H210C221.046 40 230 31.0457 230 20C230 8.9543 221.046 0 210 0Z" fill="#FC470E"/>
<path d="M88.3726 17.0897C88.3229 16.6245 88.1134 16.2623 87.744 16.0031C87.3783 15.7439 86.9024 15.6142 86.3165 15.6142C85.9046 15.6142 85.5512 15.6764 85.2565 15.8007C84.9617 15.925 84.7362 16.0936 84.58 16.3067C84.4237 16.5198 84.3438 16.763 84.3403 17.0365C84.3403 17.2637 84.3918 17.4608 84.4948 17.6277C84.6013 17.7946 84.7451 17.9367 84.9262 18.0539C85.1073 18.1675 85.308 18.2634 85.5281 18.3415C85.7483 18.4196 85.9702 18.4853 86.194 18.5386L87.2167 18.7943C87.6286 18.8902 88.0246 19.0198 88.4046 19.1831C88.7881 19.3465 89.1308 19.5525 89.4326 19.801C89.738 20.0496 89.9795 20.3497 90.157 20.7012C90.3346 21.0528 90.4234 21.4647 90.4234 21.937C90.4234 22.5762 90.26 23.1391 89.9333 23.6256C89.6066 24.1086 89.1343 24.4868 88.5164 24.7602C87.9021 25.0301 87.1581 25.165 86.2845 25.165C85.4358 25.165 84.6989 25.0336 84.0739 24.7709C83.4525 24.5081 82.966 24.1245 82.6144 23.6203C82.2664 23.116 82.0782 22.5017 82.0498 21.7772H83.994C84.0225 22.1572 84.1396 22.4733 84.3456 22.7254C84.5516 22.9775 84.8197 23.1657 85.1499 23.29C85.4837 23.4143 85.8566 23.4765 86.2685 23.4765C86.6982 23.4765 87.0747 23.4125 87.3978 23.2847C87.7245 23.1533 87.9802 22.9722 88.1649 22.7414C88.3495 22.507 88.4436 22.2336 88.4472 21.9211C88.4436 21.637 88.3602 21.4026 88.1968 21.2179C88.0335 21.0297 87.8044 20.8735 87.5097 20.7492C87.2185 20.6213 86.8776 20.5077 86.4869 20.4083L85.2458 20.0887C84.3474 19.8579 83.6372 19.5081 83.1151 19.0393C82.5967 18.567 82.3374 17.9402 82.3374 17.159C82.3374 16.5162 82.5114 15.9534 82.8595 15.4704C83.211 14.9875 83.6886 14.6128 84.2923 14.3465C84.896 14.0766 85.5796 13.9417 86.3431 13.9417C87.1173 13.9417 87.7955 14.0766 88.3779 14.3465C88.9639 14.6128 89.4237 14.9839 89.7575 15.4598C90.0913 15.9321 90.2636 16.4754 90.2742 17.0897H88.3726ZM92.1 24.9999V16.8181H94.0282V24.9999H92.1ZM93.0694 15.6569C92.764 15.6569 92.5012 15.5557 92.2811 15.3532C92.0609 15.1473 91.9508 14.9005 91.9508 14.6128C91.9508 14.3216 92.0609 14.0748 92.2811 13.8724C92.5012 13.6664 92.764 13.5635 93.0694 13.5635C93.3784 13.5635 93.6411 13.6664 93.8578 13.8724C94.0779 14.0748 94.188 14.3216 94.188 14.6128C94.188 14.9005 94.0779 15.1473 93.8578 15.3532C93.6411 15.5557 93.3784 15.6569 93.0694 15.6569ZM99.5693 28.2385C98.8769 28.2385 98.282 28.1444 97.7849 27.9562C97.2877 27.7716 96.8882 27.523 96.5864 27.2105C96.2845 26.898 96.075 26.5517 95.9578 26.1718L97.6943 25.751C97.7725 25.9108 97.8861 26.0688 98.0352 26.225C98.1844 26.3848 98.385 26.5162 98.6372 26.6192C98.8928 26.7258 99.2142 26.779 99.6013 26.779C100.148 26.779 100.601 26.6459 100.959 26.3795C101.318 26.1167 101.497 25.6835 101.497 25.0798V23.5297H101.401C101.302 23.7286 101.156 23.9328 100.965 24.1423C100.776 24.3518 100.526 24.5276 100.214 24.6696C99.9049 24.8117 99.5161 24.8827 99.0473 24.8827C98.4188 24.8827 97.8488 24.7353 97.3374 24.4406C96.8296 24.1423 96.4248 23.6984 96.1229 23.1089C95.8247 22.5159 95.6755 21.7737 95.6755 20.8824C95.6755 19.9839 95.8247 19.2258 96.1229 18.6079C96.4248 17.9864 96.8314 17.5159 97.3428 17.1963C97.8541 16.8731 98.4241 16.7115 99.0526 16.7115C99.532 16.7115 99.9262 16.7932 100.235 16.9566C100.547 17.1164 100.796 17.3099 100.981 17.5372C101.165 17.7609 101.306 17.9722 101.401 18.1711H101.508V16.8181H103.41V25.1331C103.41 25.8326 103.243 26.4115 102.909 26.8696C102.575 27.3277 102.119 27.6704 101.54 27.8976C100.961 28.1249 100.304 28.2385 99.5693 28.2385ZM99.5853 23.3699C99.9937 23.3699 100.341 23.2705 100.629 23.0716C100.917 22.8728 101.135 22.5869 101.284 22.214C101.433 21.8412 101.508 21.3937 101.508 20.8717C101.508 20.3568 101.433 19.9058 101.284 19.5187C101.139 19.1316 100.922 18.8316 100.634 18.6185C100.35 18.4019 100 18.2936 99.5853 18.2936C99.1556 18.2936 98.797 18.4054 98.5093 18.6292C98.2217 18.8529 98.005 19.1601 97.8595 19.5507C97.7139 19.9378 97.6411 20.3781 97.6411 20.8717C97.6411 21.3724 97.7139 21.811 97.8595 22.1874C98.0086 22.5603 98.227 22.8515 98.5146 23.061C98.8058 23.2669 99.1627 23.3699 99.5853 23.3699ZM107.314 20.2059V24.9999H105.386V16.8181H107.229V18.2084H107.325C107.513 17.7503 107.813 17.3863 108.225 17.1164C108.64 16.8465 109.154 16.7115 109.764 16.7115C110.329 16.7115 110.821 16.8323 111.24 17.0738C111.662 17.3152 111.989 17.665 112.22 18.1231C112.454 18.5812 112.57 19.137 112.566 19.7904V24.9999H110.638V20.0887C110.638 19.5418 110.496 19.1139 110.212 18.8049C109.931 18.496 109.542 18.3415 109.045 18.3415C108.708 18.3415 108.408 18.4161 108.145 18.5652C107.886 18.7108 107.682 18.9221 107.532 19.1991C107.387 19.4761 107.314 19.8117 107.314 20.2059ZM125.209 14.0908H127.185V21.2179C127.185 21.9992 127.001 22.6863 126.631 23.2794C126.266 23.8724 125.751 24.3358 125.087 24.6696C124.423 24.9999 123.647 25.165 122.759 25.165C121.867 25.165 121.09 24.9999 120.426 24.6696C119.762 24.3358 119.247 23.8724 118.881 23.2794C118.515 22.6863 118.332 21.9992 118.332 21.2179V14.0908H120.309V21.0528C120.309 21.5074 120.408 21.9122 120.607 22.2673C120.809 22.6224 121.093 22.9012 121.459 23.1036C121.825 23.3025 122.258 23.4019 122.759 23.4019C123.26 23.4019 123.693 23.3025 124.059 23.1036C124.428 22.9012 124.712 22.6224 124.911 22.2673C125.11 21.9122 125.209 21.5074 125.209 21.0528V14.0908ZM129.248 28.0681V16.8181H131.144V18.1711H131.256C131.356 17.9722 131.496 17.7609 131.677 17.5372C131.858 17.3099 132.103 17.1164 132.412 16.9566C132.721 16.7932 133.115 16.7115 133.595 16.7115C134.227 16.7115 134.797 16.8731 135.305 17.1963C135.816 17.5159 136.221 17.99 136.519 18.6185C136.821 19.2435 136.972 20.0106 136.972 20.9196C136.972 21.8181 136.824 22.5816 136.53 23.2101C136.235 23.8387 135.834 24.3181 135.326 24.6483C134.818 24.9786 134.243 25.1437 133.6 25.1437C133.131 25.1437 132.742 25.0656 132.433 24.9093C132.125 24.7531 131.876 24.5649 131.688 24.3447C131.503 24.121 131.359 23.9097 131.256 23.7108H131.176V28.0681H129.248ZM131.139 20.909C131.139 21.4381 131.214 21.9015 131.363 22.2993C131.515 22.697 131.734 23.0077 132.018 23.2314C132.306 23.4516 132.654 23.5617 133.062 23.5617C133.488 23.5617 133.845 23.4481 134.133 23.2208C134.42 22.99 134.637 22.6757 134.783 22.278C134.932 21.8767 135.006 21.4204 135.006 20.909C135.006 20.4012 134.933 19.9502 134.788 19.556C134.642 19.1618 134.426 18.8529 134.138 18.6292C133.85 18.4054 133.492 18.2936 133.062 18.2936C132.65 18.2936 132.3 18.4019 132.013 18.6185C131.725 18.8351 131.507 19.1387 131.357 19.5294C131.212 19.92 131.139 20.3799 131.139 20.909Z" fill="black"/>
</g>
<defs>
<clipPath id="clip0_170_723">
<rect width="230" height="40" fill="white"/>
</clipPath>
</defs>
</svg>
