<svg width="230" height="40" viewBox="0 0 230 40" fill="none" xmlns="http://www.w3.org/2000/svg">
<g clip-path="url(#clip0_170_723)">
<path d="M210 0H20C8.9543 0 0 8.9543 0 20C0 31.0457 8.9543 40 20 40H210C221.046 40 230 31.0457 230 20C230 8.9543 221.046 0 210 0Z" fill="#FC470E"/>
<path d="M88.3721 17.0899C88.3224 16.6247 88.1129 16.2625 87.7435 16.0033C87.3778 15.7441 86.9019 15.6144 86.316 15.6144C85.9041 15.6144 85.5507 15.6766 85.256 15.8009C84.9612 15.9252 84.7357 16.0938 84.5795 16.3069C84.4232 16.52 84.3433 16.7632 84.3398 17.0367C84.3398 17.2639 84.3913 17.461 84.4943 17.6279C84.6008 17.7948 84.7446 17.9369 84.9257 18.0541C85.1068 18.1677 85.3075 18.2636 85.5276 18.3417C85.7478 18.4198 85.9697 18.4855 86.1935 18.5388L87.2162 18.7945C87.6281 18.8904 88.0241 19.02 88.4041 19.1833C88.7876 19.3467 89.1303 19.5527 89.4321 19.8012C89.7375 20.0498 89.979 20.3499 90.1565 20.7014C90.3341 21.053 90.4229 21.4649 90.4229 21.9372C90.4229 22.5764 90.2595 23.1393 89.9328 23.6258C89.6061 24.1088 89.1338 24.487 88.5159 24.7604C87.9016 25.0303 87.1576 25.1652 86.284 25.1652C85.4353 25.1652 84.6984 25.0338 84.0734 24.7711C83.452 24.5083 82.9655 24.1247 82.6139 23.6205C82.2659 23.1162 82.0777 22.5019 82.0493 21.7774H83.9935C84.022 22.1574 84.1391 22.4735 84.3451 22.7256C84.5511 22.9777 84.8192 23.1659 85.1494 23.2902C85.4832 23.4145 85.8561 23.4767 86.268 23.4767C86.6977 23.4767 87.0742 23.4127 87.3973 23.2849C87.724 23.1535 87.9797 22.9724 88.1644 22.7416C88.349 22.5072 88.4431 22.2338 88.4467 21.9213C88.4431 21.6372 88.3597 21.4028 88.1963 21.2181C88.033 21.0299 87.8039 20.8737 87.5092 20.7494C87.218 20.6215 86.8771 20.5079 86.4864 20.4085L85.2453 20.0889C84.3469 19.8581 83.6367 19.5083 83.1146 19.0395C82.5962 18.5672 82.3369 17.9404 82.3369 17.1592C82.3369 16.5164 82.5109 15.9536 82.859 15.4706C83.2105 14.9877 83.6881 14.613 84.2918 14.3467C84.8955 14.0768 85.5791 13.9419 86.3426 13.9419C87.1168 13.9419 87.795 14.0768 88.3774 14.3467C88.9634 14.613 89.4232 14.9841 89.757 15.46C90.0908 15.9323 90.2631 16.4756 90.2737 17.0899H88.3721ZM92.0995 25.0001V16.8183H94.0277V25.0001H92.0995ZM93.0689 15.6571C92.7635 15.6571 92.5007 15.5559 92.2806 15.3534C92.0604 15.1475 91.9503 14.9007 91.9503 14.613C91.9503 14.3218 92.0604 14.075 92.2806 13.8726C92.5007 13.6666 92.7635 13.5637 93.0689 13.5637C93.3779 13.5637 93.6406 13.6666 93.8573 13.8726C94.0774 14.075 94.1875 14.3218 94.1875 14.613C94.1875 14.9007 94.0774 15.1475 93.8573 15.3534C93.6406 15.5559 93.3779 15.6571 93.0689 15.6571ZM99.5688 28.2387C98.8764 28.2387 98.2815 28.1446 97.7844 27.9564C97.2872 27.7718 96.8877 27.5232 96.5859 27.2107C96.284 26.8982 96.0745 26.5519 95.9573 26.172L97.6938 25.7512C97.772 25.911 97.8856 26.069 98.0347 26.2252C98.1839 26.385 98.3845 26.5164 98.6367 26.6194C98.8923 26.726 99.2137 26.7792 99.6008 26.7792C100.148 26.7792 100.601 26.6461 100.959 26.3797C101.318 26.1169 101.497 25.6837 101.497 25.08V23.5299H101.401C101.302 23.7288 101.156 23.933 100.965 24.1425C100.776 24.352 100.526 24.5278 100.214 24.6698C99.9044 24.8119 99.5156 24.8829 99.0468 24.8829C98.4183 24.8829 97.8483 24.7355 97.3369 24.4408C96.8291 24.1425 96.4243 23.6986 96.1224 23.1091C95.8242 22.5161 95.675 21.7739 95.675 20.8826C95.675 19.9841 95.8242 19.226 96.1224 18.6081C96.4243 17.9866 96.8309 17.5161 97.3423 17.1965C97.8536 16.8733 98.4236 16.7117 99.0521 16.7117C99.5315 16.7117 99.9257 16.7934 100.235 16.9568C100.547 17.1166 100.796 17.3101 100.981 17.5374C101.165 17.7611 101.306 17.9724 101.401 18.1713H101.508V16.8183H103.41V25.1333C103.41 25.8328 103.243 26.4117 102.909 26.8698C102.575 27.3279 102.119 27.6706 101.54 27.8978C100.961 28.1251 100.304 28.2387 99.5688 28.2387ZM99.5848 23.3701C99.9932 23.3701 100.341 23.2707 100.629 23.0718C100.917 22.873 101.135 22.5871 101.284 22.2142C101.433 21.8414 101.508 21.3939 101.508 20.8719C101.508 20.357 101.433 19.906 101.284 19.5189C101.139 19.1318 100.922 18.8318 100.634 18.6187C100.35 18.4021 99.9998 18.2938 99.5848 18.2938C99.1551 18.2938 98.7965 18.4056 98.5088 18.6294C98.2212 18.8531 98.0045 19.1603 97.859 19.5509C97.7134 19.938 97.6406 20.3783 97.6406 20.8719C97.6406 21.3726 97.7134 21.8112 97.859 22.1876C98.0081 22.5605 98.2265 22.8517 98.5141 23.0612C98.8053 23.2671 99.1622 23.3701 99.5848 23.3701ZM107.314 20.2061V25.0001H105.386V16.8183H107.229V18.2086H107.325C107.513 17.7505 107.813 17.3865 108.225 17.1166C108.64 16.8467 109.154 16.7117 109.764 16.7117C110.329 16.7117 110.821 16.8325 111.24 17.074C111.662 17.3154 111.989 17.6652 112.22 18.1233C112.454 18.5814 112.57 19.1372 112.566 19.7906V25.0001H110.638V20.0889C110.638 19.542 110.496 19.1141 110.212 18.8051C109.931 18.4962 109.542 18.3417 109.045 18.3417C108.708 18.3417 108.408 18.4163 108.145 18.5654C107.886 18.711 107.682 18.9223 107.532 19.1993C107.387 19.4763 107.314 19.8119 107.314 20.2061ZM125.209 14.091H127.185V21.2181C127.185 21.9994 127.001 22.6865 126.631 23.2796C126.266 23.8726 125.751 24.336 125.087 24.6698C124.423 25.0001 123.647 25.1652 122.759 25.1652C121.867 25.1652 121.09 25.0001 120.426 24.6698C119.762 24.336 119.247 23.8726 118.881 23.2796C118.515 22.6865 118.332 21.9994 118.332 21.2181V14.091H120.309V21.053C120.309 21.5076 120.408 21.9124 120.607 22.2675C120.809 22.6226 121.093 22.9014 121.459 23.1038C121.825 23.3027 122.258 23.4021 122.759 23.4021C123.26 23.4021 123.693 23.3027 124.059 23.1038C124.428 22.9014 124.712 22.6226 124.911 22.2675C125.11 21.9124 125.209 21.5076 125.209 21.053V14.091ZM129.248 28.0683V16.8183H131.144V18.1713H131.256C131.356 17.9724 131.496 17.7611 131.677 17.5374C131.858 17.3101 132.103 17.1166 132.412 16.9568C132.721 16.7934 133.115 16.7117 133.595 16.7117C134.227 16.7117 134.797 16.8733 135.305 17.1965C135.816 17.5161 136.221 17.9902 136.519 18.6187C136.821 19.2437 136.972 20.0108 136.972 20.9198C136.972 21.8183 136.824 22.5818 136.53 23.2103C136.235 23.8389 135.834 24.3183 135.326 24.6485C134.818 24.9788 134.243 25.1439 133.6 25.1439C133.131 25.1439 132.742 25.0658 132.433 24.9095C132.125 24.7533 131.876 24.5651 131.688 24.3449C131.503 24.1212 131.359 23.9099 131.256 23.711H131.176V28.0683H129.248ZM131.139 20.9092C131.139 21.4383 131.214 21.9017 131.363 22.2995C131.515 22.6972 131.734 23.0079 132.018 23.2316C132.306 23.4518 132.654 23.5619 133.062 23.5619C133.488 23.5619 133.845 23.4483 134.133 23.221C134.42 22.9902 134.637 22.6759 134.783 22.2782C134.932 21.8769 135.006 21.4206 135.006 20.9092C135.006 20.4014 134.933 19.9504 134.788 19.5562C134.642 19.162 134.426 18.8531 134.138 18.6294C133.85 18.4056 133.492 18.2938 133.062 18.2938C132.65 18.2938 132.3 18.4021 132.013 18.6187C131.725 18.8353 131.507 19.1389 131.357 19.5296C131.212 19.9202 131.139 20.3801 131.139 20.9092Z" fill="white"/>
</g>
<defs>
<clipPath id="clip0_170_723">
<rect width="230" height="40" fill="white"/>
</clipPath>
</defs>
</svg>
